<?xml version="1.0" encoding="utf-8"?>
<!-- Generator: Adobe Illustrator 16.0.0, SVG Export Plug-In . SVG Version: 6.00 Build 0)  -->
<!DOCTYPE svg PUBLIC "-//W3C//DTD SVG 1.1//EN" "http://www.w3.org/Graphics/SVG/1.1/DTD/svg11.dtd">
<svg version="1.1" id="Capa_1" xmlns="http://www.w3.org/2000/svg" xmlns:xlink="http://www.w3.org/1999/xlink" x="0px" y="0px"
	 width="150px" height="150px" viewBox="0 0 150 150" enable-background="new 0 0 150 150" xml:space="preserve">
<g>
	<path d="M131.625,32.206c-0.24-0.153-0.539-0.186-0.805-0.085c-13.184,4.923-25.523,8.007-37.717,9.427
		c-12.348-3.097-24.867-6.491-37.533-9.666c-0.025-0.005-0.053,0.005-0.078,0.002c-0.047-0.007-0.091-0.029-0.142-0.029
		c-0.004,0-0.007,0-0.011,0c-0.06,0-0.111,0.023-0.167,0.035c-0.027,0.005-0.055-0.005-0.082,0.002
		c-12.856,3.811-23.807,8.612-36.622,12.411c-0.389,0.118-0.655,0.478-0.651,0.884c0.007,0.716,0.463,74.369,1.043,74.787
		c0.242,0.173,0.547,0.213,0.813,0.125c12.455-4.07,23.86-7.665,36.547-11.809c6.484,1.84,12.935,3.662,19.387,5.482
		c0.48,0.134,18.644,5.387,19.127,5.265c0.023-0.005,0.049,0.006,0.072-0.001c12.938-4.335,25.506-7.999,38.522-12.355
		c0.363-0.121,0.61-0.458,0.622-0.84c0.619-24.785-0.023-49.325-1.911-72.94C132.021,32.616,131.865,32.358,131.625,32.206z
		 M132.246,99.93c-0.179-0.155-0.446-0.158-0.615,0.01l-2.004,2.004l-1.578-1.58l0.31-0.307c0.178-0.179,0.178-0.466,0-0.645
		c-0.179-0.178-0.466-0.178-0.644,0l-0.31,0.309l-2.083-2.084l2.69-2.691l0.671,0.671l-1.042,1.042
		c-0.178,0.178-0.178,0.465,0,0.644c0.177,0.177,0.464,0.179,0.644,0l1.042-1.042l1.612,1.613c0.177,0.176,0.465,0.178,0.645,0
		c0.178-0.179,0.178-0.466,0-0.645l-1.613-1.612l2.064-2.063c0.049-0.049,0.051-0.116,0.072-0.176
		c0.029-0.019,0.066-0.014,0.093-0.039c0.178-0.178,0.178-0.465,0-0.644l-2.886-2.886l2.336-2.336l0.699,0.698
		c0.003,0.004,0.009,0.002,0.01,0.005C132.354,92.084,132.313,96.004,132.246,99.93z M125.316,106.898
		c0.176,0.176,0.463,0.178,0.644,0l1.447-1.447l0.944,0.943c-3.145,1.025-6.25,2.025-9.328,2.996l3.688-3.688l0.905,0.906
		c0.177,0.176,0.464,0.178,0.644,0c0.178-0.179,0.178-0.466,0-0.645l-0.905-0.904l1.833-1.834l1.58,1.58l-1.447,1.447
		C125.141,106.433,125.141,106.721,125.316,106.898z M118.598,107.982l-0.901-0.902l3.194-3.195l1.175,1.176l-3.399,3.399
		C118.73,108.299,118.73,108.115,118.598,107.982z M125.827,102.586l1.578-1.578l1.58,1.58l-1.578,1.578L125.827,102.586z
		 M125.186,101.941l-2.195-2.194c0.008,0,0.014,0.009,0.022,0.009c0.118,0,0.233-0.043,0.321-0.133l1.346-1.345l2.084,2.085
		L125.186,101.941z M132.326,81.613l-0.237-0.236l0.235-0.233C132.324,81.299,132.324,81.457,132.326,81.613z M132.213,73.622
		l-0.833-0.833l0.8-0.8C132.193,72.533,132.203,73.078,132.213,73.622z M132.262,76.152c0.004,0.223,0.01,0.442,0.013,0.662
		l-0.338-0.338L132.262,76.152z M132.162,70.993c-0.137-0.018-0.275,0.005-0.381,0.109l-1.922,1.924
		c-0.178,0.178-0.178,0.465,0,0.644c0.176,0.175,0.465,0.18,0.645,0l0.234-0.234l1.479,1.478l-0.93,0.929
		c-0.178-0.158-0.447-0.16-0.618,0.011s-0.167,0.44-0.011,0.618l-0.799,0.799c-0.178,0.178-0.178,0.465,0,0.643
		c0.177,0.177,0.465,0.179,0.645,0l0.791-0.79l1.005,1.005c0.007,0.578,0.006,1.16,0.013,1.74l-0.867,0.867l-1.245-1.245
		c-0.179-0.179-0.466-0.179-0.644,0s-0.178,0.466,0,0.644l1.245,1.245l-1.647,1.647c-0.178,0.178-0.178,0.465,0,0.644
		c0.177,0.177,0.464,0.179,0.645,0l1.646-1.647l0.74,0.74c0.04,0.04,0.098,0.038,0.146,0.063c0.01,1.359,0.027,2.718,0.027,4.081
		l-0.108-0.108c0.085-0.17,0.089-0.371-0.053-0.514c-0.142-0.142-0.344-0.138-0.513-0.055l-1.887-1.887
		c-0.179-0.178-0.467-0.178-0.645,0s-0.178,0.465,0,0.644l1.85,1.849l-2.336,2.337l-0.588-0.587c-0.178-0.179-0.465-0.179-0.644,0
		c-0.179,0.178-0.179,0.465,0,0.644l0.587,0.587l-0.891,0.891c-0.178,0.179-0.178,0.466,0,0.645c0.176,0.176,0.463,0.178,0.644,0
		l0.892-0.892l2.588,2.589l-1.932,1.934l-0.672-0.672l0.202-0.201c0.179-0.178,0.179-0.466,0-0.644
		c-0.179-0.179-0.466-0.179-0.644,0l-0.201,0.202l-0.736-0.744c-0.179-0.178-0.467-0.178-0.645,0s-0.178,0.465,0,0.644l0.738,0.738
		l-2.691,2.69l-0.535-0.536c-0.179-0.179-0.467-0.179-0.645,0s-0.178,0.466,0,0.644l0.54,0.535l-1.345,1.346
		c-0.096,0.094-0.131,0.218-0.124,0.342l-1.353-1.354c-0.179-0.178-0.466-0.178-0.643,0c-0.178,0.178-0.178,0.466,0,0.645
		l3.971,3.971l-1.834,1.832l-1.174-1.174l0.492-0.493c0.178-0.179,0.178-0.466,0-0.644s-0.465-0.178-0.644,0l-0.493,0.492
		l-2.405-2.405c-0.179-0.178-0.466-0.178-0.642,0c-0.178,0.179-0.178,0.466,0,0.644l2.405,2.406l-3.194,3.193l-0.973-0.973
		l1.56-1.558c0.179-0.179,0.179-0.466,0-0.644c-0.178-0.178-0.466-0.178-0.644,0l-1.559,1.559l-1.496-1.497
		c-0.178-0.178-0.465-0.178-0.642,0c-0.179,0.179-0.179,0.466,0,0.644l1.497,1.496l-1.681,1.681l-0.991-0.991
		c-0.178-0.178-0.465-0.178-0.642,0c-0.179,0.178-0.179,0.466,0,0.645l0.991,0.99l-2.035,2.035l-1.041-1.043
		c-0.117-0.115-0.273-0.127-0.422-0.09c-1.833-8.305-3.869-16.031-6.143-23.324c8.092-4.962,17.175-9.184,17.175-9.184
		c0.344-0.424,7.628-9.409,11.835-15.827C131.979,63.885,132.08,67.435,132.162,70.993z M116.411,107.08l-1.681,1.68l-0.973-0.973
		l1.68-1.68L116.411,107.08z M109.754,112.311c-0.03-0.145-0.061-0.285-0.092-0.429l0.222-0.222
		c0.384,0.276,0.757,0.004,0.757-0.338c0-0.01-0.01-0.014-0.01-0.022l0.559,0.559C110.715,112.01,110.23,112.162,109.754,112.311z
		 M79.551,112.996l-1.629-1.629l2.144-2.144l1.071,1.071l-1.393,1.393c-0.179,0.178-0.179,0.465,0,0.644
		c0.176,0.177,0.463,0.179,0.643,0l1.393-1.394l2.125,2.125c-0.006,0.123,0.03,0.244,0.125,0.34
		c0.089,0.088,0.203,0.133,0.322,0.133c0.007,0,0.012-0.008,0.018-0.008l0.84,0.84c0.176,0.176,0.464,0.178,0.644,0
		c0.179-0.178,0.179-0.465,0-0.644l-0.753-0.753l2.217-2.218l2.036,2.036l-1.147,1.147c-0.178,0.179-0.178,0.466,0,0.644
		c0.177,0.176,0.464,0.178,0.645,0l1.145-1.147l3.063,3.062c0.19,0.191,0.348,0.145,0.523,0.049l0.009,0.419
		C88.896,115.633,84.224,114.314,79.551,112.996z M77.76,112.489c-0.249-0.071-0.5-0.142-0.749-0.211l0.269-0.269L77.76,112.489z
		 M77.078,106.104c-0.178-0.178-0.465-0.178-0.644,0l-3.602,3.602l-1.018-1.018c-0.178-0.178-0.465-0.178-0.644,0
		s-0.178,0.465,0,0.644l1.018,1.019l-0.442,0.441c-4.875-1.377-9.747-2.753-14.642-4.141l-0.258-22.425l6.889-3.538
		c0.216-0.111,0.38-0.306,0.453-0.539c1.251-4.03,2.544-8.07,3.836-12.11c1.296-4.058,2.595-8.118,3.851-12.166l11.32-14.995
		c2.983,0.771,5.968,1.555,8.949,2.304l1.091,55.867L91.285,97.1c-0.178-0.18-0.465-0.176-0.642,0c-0.179,0.179-0.179,0.466,0,0.645
		l2.485,2.483c0.037,0.036,0.088,0.032,0.131,0.054l0.195,9.934l-0.133-0.133c0.14-0.178,0.145-0.432-0.021-0.595
		c-0.163-0.163-0.417-0.16-0.595-0.021l-2.893-2.893c0.116,0,0.23-0.043,0.32-0.133l1.68-1.68l0.715,0.715
		c0.176,0.176,0.463,0.178,0.644,0c0.179-0.178,0.179-0.466,0-0.645l-0.715-0.714l0.158-0.158c0.179-0.179,0.179-0.466,0-0.644
		c-0.18-0.178-0.468-0.178-0.644,0l-0.158,0.158l-1.576-1.576c-0.105-0.105-0.246-0.127-0.382-0.107l2.032-2.033
		c0.179-0.178,0.179-0.465,0-0.643c-0.178-0.179-0.465-0.179-0.643,0l-2.291,2.29c-0.179,0.179-0.179,0.466,0,0.644
		c0.088,0.09,0.203,0.133,0.321,0.133c0.089,0,0.167-0.049,0.241-0.1c-0.054,0.16-0.053,0.332,0.075,0.46l1.576,1.576l-1.68,1.681
		c-0.144,0.143-0.138,0.347-0.052,0.518c-0.154-0.047-0.321-0.04-0.443,0.084c-0.178,0.178-0.178,0.465,0,0.643l3.055,3.055
		l-2.057,2.057l-2.035-2.036l1.223-1.224c0.179-0.178,0.179-0.465,0-0.644c-0.178-0.179-0.465-0.179-0.644,0l-1.222,1.224
		l-2.025-2.025c-0.004-0.004-0.01-0.002-0.013-0.006l0.344-0.344c0.179-0.178,0.179-0.465,0-0.643c-0.179-0.179-0.466-0.179-0.644,0
		l-3.2,3.199l-1.071-1.07l1.068-1.068c0.178-0.178,0.178-0.465,0-0.643c-0.179-0.179-0.467-0.179-0.645,0l-3.853,3.852l-2.035-2.035
		c-0.02-0.022-0.053-0.016-0.076-0.031l1.909-1.909C77.256,106.569,77.256,106.281,77.078,106.104z M72.833,110.99l0.147,0.148
		c-0.076-0.022-0.154-0.044-0.231-0.066L72.833,110.99z M47.553,36.22c2.256-0.766,4.553-1.513,6.9-2.226l0.564,49.127
		l-10.818,5.556C44.196,86.859,44.951,49.633,47.553,36.22z M55.04,85.152l0.065,5.641l-1.771,1.771l-0.589-0.589
		c-0.178-0.178-0.466-0.178-0.644,0c-0.178,0.178-0.178,0.465,0,0.644l0.589,0.589l-0.267,0.268c-0.178,0.178-0.178,0.465,0,0.644
		c0.176,0.177,0.463,0.179,0.644,0l0.267-0.267l1.242,1.241c0.153,0.153,0.358,0.186,0.578,0.027l0.042,3.597l-1.187-1.188
		c0.124-0.178,0.127-0.413-0.029-0.571c-0.158-0.158-0.395-0.152-0.571-0.028L52.96,96.48c-0.178-0.179-0.465-0.179-0.644,0
		c-0.178,0.178-0.178,0.465,0,0.643l0.429,0.43l-4.071,4.07c-0.178,0.179-0.178,0.466,0,0.645c0.176,0.176,0.463,0.178,0.644,0l0,0
		l1.016,1.018l-1.18,1.18l-1.66-1.659c-0.18-0.181-0.467-0.177-0.642,0c-0.178,0.178-0.178,0.466,0,0.644l1.66,1.66l-1.553,1.553
		l-0.856-0.856c-0.178-0.179-0.465-0.179-0.642,0c-0.049,0.049-0.053,0.118-0.075,0.18c-0.664-5.069-1.045-10.173-1.131-15.284
		L55.04,85.152z M54.789,99.591c0.089,0.089,0.204,0.133,0.322,0.133c0.035,0,0.062-0.032,0.096-0.04l0.002,0.113l-1.5,1.498
		l-1.393-1.393c-0.176-0.177-0.462-0.177-0.64-0.002l1.711-1.711L54.789,99.591z M55.147,94.375l-1.169-1.17l1.142-1.142
		L55.147,94.375z M50.442,105.742l-0.644-0.645l1.178-1.178l0.644,0.643L50.442,105.742z M48.202,108.047
		c-0.013-0.094-0.036-0.19-0.109-0.264l-0.489-0.488l1.553-1.553l0.644,0.643l-1.553,1.555
		C48.216,107.967,48.222,108.011,48.202,108.047z M45.445,106.4c0.009,0.011,0.005,0.027,0.017,0.037l0.856,0.857l-0.658,0.658
		C45.583,107.435,45.515,106.916,45.445,106.4z M45.816,109.082l1.144-1.145l0.489,0.49c0.176,0.176,0.463,0.178,0.644,0
		c0.031-0.031,0.025-0.075,0.045-0.109c0.013,0.094,0.036,0.191,0.109,0.264c0.177,0.176,0.464,0.178,0.644,0l1.578-1.578
		c0.225,0.146,0.407,0.118,0.56-0.035c0.154-0.154,0.149-0.383,0.034-0.56l1.202-1.202l1.854,1.855
		c-2.749,0.896-5.487,1.785-8.213,2.663C45.871,109.511,45.849,109.295,45.816,109.082z M54.917,106.572l-2.031-2.03
		c0.122-0.177,0.127-0.413-0.031-0.569s-0.393-0.15-0.569-0.031l-2.324-2.325l1.711-1.711c-0.175,0.179-0.176,0.464,0.001,0.64
		l1.393,1.393l-0.429,0.43c-0.178,0.178-0.178,0.465,0,0.644c0.18,0.181,0.467,0.177,0.642,0l0.429-0.429l0.702,0.701
		c0.089,0.09,0.204,0.133,0.322,0.133c0.116,0,0.232-0.043,0.322-0.133c0.178-0.178,0.178-0.465,0-0.643l-0.702-0.703l0.871-0.87
		l0.065,5.614c-0.096,0.031-0.193,0.063-0.289,0.093C54.978,106.703,54.971,106.629,54.917,106.572z M93.482,111.521l0.081,4.197
		l-2.925-2.928l2.056-2.057L93.482,111.521z M82.422,110.295l2.222-2.223c0.004,0.004,0.002,0.012,0.005,0.016l2.025,2.025
		l-2.217,2.218L82.422,110.295z M93.967,43.267c2.991-0.363,5.993-0.823,9.014-1.387c1.916,3.844,3.527,7.867,4.772,11.982
		c-3.31,6.856-6.804,13.14-10.677,19.2c-0.152,0.242-0.186,0.542-0.086,0.809c4.383,11.701,7.988,24.465,11.024,38.988
		c-4.149,1.309-8.347,2.65-12.607,4.066L93.967,43.267z M109.234,109.905l0.561,0.56l-0.362,0.36
		C109.367,110.518,109.302,110.211,109.234,109.905z M131.7,57.202c-0.026,0.033-0.062,0.055-0.084,0.093
		c-3.429,5.8-11.729,16.14-12.888,17.575c-5.641,2.559-11.168,5.492-16.455,8.715c-1.086-3.393-2.223-6.702-3.421-9.924
		c3.873-6.098,7.373-12.427,10.69-19.328c0.101-0.204,0.119-0.436,0.053-0.652c-1.244-4.173-2.859-8.255-4.773-12.162
		c8.275-1.653,16.707-4.047,25.504-7.272C130.916,41.807,131.365,49.473,131.7,57.202z M81.291,40.384
		c-13.064,17.305-9.796,10.167-18.724,38.858l-5.744,2.949L56.271,33.94C58.975,34.622,62.007,35.382,81.291,40.384z
		 M20.293,117.983l-0.651-72.132c9.071-2.724,17.105-5.895,25.947-8.964c-1.704,9.462-2.162,21.951-2.554,33.069
		c-0.469,13.118-1.598,23.602,1.113,40.331C34.667,113.342,27.971,115.482,20.293,117.983z M74.455,111.555
		c0.009-0.125-0.025-0.253-0.122-0.35l-0.858-0.857l1.095-1.094c0.016,0.024,0.011,0.055,0.031,0.077l2.035,2.036l-0.43,0.43
		c-0.063,0.063-0.076,0.146-0.094,0.229c-0.002,0-0.006-0.002-0.008-0.002C75.556,111.867,75.003,111.711,74.455,111.555z
		 M112.078,111.58c-0.02-0.07-0.027-0.146-0.084-0.2l-0.914-0.915l2.035-2.034l0.973,0.974l-0.588,0.586
		c-0.178,0.179-0.178,0.467,0,0.643c0.176,0.176,0.464,0.178,0.644,0l0.587-0.588l0.257,0.257c0.177,0.177,0.464,0.179,0.644,0
		c0.178-0.179,0.178-0.466,0-0.644l-0.256-0.256l1.68-1.681l0.902,0.901c0.188,0.189,0.313,0.135,0.479,0.068
		c-0.318,0.318-0.637,0.585-0.289,0.931c0.017,0.017,0.04,0.011,0.058,0.023C117.781,109.779,112.996,111.291,112.078,111.58z
		 M129.32,106.078l-1.271-1.271l1.578-1.578l1.356,1.357c0.177,0.176,0.464,0.178,0.644,0c0.179-0.179,0.179-0.466,0-0.645
		l-1.355-1.355l1.961-1.963c-0.027,1.512-0.045,3.021-0.082,4.533C131.2,105.475,130.268,105.768,129.32,106.078z"/>
	<path d="M89.278,97.973l2.154-2.152c0.179-0.179,0.179-0.466,0-0.645c-0.177-0.178-0.464-0.178-0.644,0l-2.154,2.153
		c-0.178,0.179-0.178,0.466,0,0.644C88.814,98.152,89.104,98.148,89.278,97.973z"/>
</g>
</svg>
