<?xml version="1.0" encoding="utf-8"?>
<!-- Generator: Adobe Illustrator 16.0.0, SVG Export Plug-In . SVG Version: 6.00 Build 0)  -->
<!DOCTYPE svg PUBLIC "-//W3C//DTD SVG 1.1//EN" "http://www.w3.org/Graphics/SVG/1.1/DTD/svg11.dtd">
<svg version="1.1" id="Capa_1" xmlns="http://www.w3.org/2000/svg" xmlns:xlink="http://www.w3.org/1999/xlink" x="0px" y="0px"
	 width="150px" height="150px" viewBox="0 0 150 150" enable-background="new 0 0 150 150" xml:space="preserve">
<g>
	<path d="M130.178,62.702c-10.703-11.003-19.498-20.005-31.723-32.565c-11.519-11.883-18.543-13.634-31.764-4.32
		C50.44,37.189,35.611,50.611,22.613,65.706c-7.962,9.252-1.896,15.149,4.151,13.045c1.424-0.525,2.629-1.373,3.789-2.287
		c0,36.476,0,27.796-0.002,42.646c-0.036,7.609,0.964,15.025,11.457,15.025c7.32,0,59.7,0,67.565,0
		c13.184,0,16.839,0.568,16.839-12.902c0-32.17,0.218-43.138,0.218-43.138c3.994,0.54,7.354-1.69,7.76-3.313
		C136.795,70.322,133.358,65.962,130.178,62.702z M54.953,55.445l0.049,0.049c-0.193,0.193-3.435,3.369-3.509,3.631l-0.304-0.304
		C53.009,57.194,50.844,59.154,54.953,55.445z M55.629,54.836c0.104-0.095,0.206-0.186,0.309-0.278l-0.294,0.294L55.629,54.836z
		 M42.82,66.927l-0.407-0.407c1.131-0.971,2.926-2.533,3.922-3.404l1.553,1.553l-3.664,3.664l-0.762-0.762l0.056-0.056
		C43.929,67.105,43.353,66.395,42.82,66.927z M32.371,74.962c0.204-0.169,0.396-0.331,0.6-0.5l1.157,1.158l-1.756,1.757V74.962z
		 M33.673,73.878c0.736-0.611,3.52-2.929,3.589-2.987l0.798,0.798l-3.289,3.289L33.673,73.878z M37.96,70.304
		c0.816-0.688,3.473-2.951,3.758-3.195l0.46,0.46l-3.477,3.476L37.96,70.304z M74.311,94.435l0.356-0.356
		c0.178-0.178,0.178-0.465,0-0.644c-0.044-0.044-0.105-0.044-0.16-0.065c0.983,0.038,1.967,0.076,2.951,0.105l-2.054,2.055
		L74.311,94.435z M74.023,93.435l-0.356,0.356l-0.469-0.469c0.226,0.009,0.451,0.014,0.676,0.023
		c0.111,0.004,0.222,0.007,0.334,0.013C74.146,93.38,74.076,93.384,74.023,93.435z M72.269,93.678l0.756,0.757l-1.513,1.513
		l-2.709-2.709c0.36-0.021,0.726-0.042,1.129-0.029c0.744,0.02,1.487,0.051,2.231,0.078C72.142,93.428,72.162,93.569,72.269,93.678z
		 M67.667,93.385l1.232,1.233c-0.078,0.019-0.162,0.03-0.222,0.093l-2.073,2.072l-1.68-1.68
		C65.525,94.059,66.449,93.627,67.667,93.385z M64.607,116.783c0.178,0.179,0.465,0.179,0.644,0l0.996-0.996l1.295,1.297
		c0.014,0.014,0.036,0.009,0.051,0.021l-1.767,1.768l-1.055-1.055c-0.125-0.125-0.298-0.131-0.457-0.076v-3.884l1.288,1.289
		l-0.997,0.996C64.431,116.318,64.431,116.605,64.607,116.783z M64.316,129.18l0.929,0.93l-0.929,0.929V129.18z M64.316,124.152
		l0.509,0.51l-0.509,0.509V124.152z M64.316,122.867v-1.254c0.031-0.019,0.071-0.014,0.096-0.041l1.415-1.414l1.751,1.751
		l-2.111,2.11L64.316,122.867z M64.316,120.384v-1.738l0.869,0.869L64.316,120.384z M64.316,108.829l0.449,0.449l-0.449,0.449
		V108.829z M64.324,132.314l1.563-1.563l0.776,0.776c0.178,0.178,0.465,0.178,0.642,0c0.178-0.178,0.178-0.465,0-0.644l-0.776-0.776
		l3.042-3.044c0.178-0.179,0.178-0.466,0-0.644s-0.465-0.178-0.644,0l-3.042,3.044l-1.571-1.571v-1.818
		c0.047,0.017,0.085,0.057,0.135,0.057c0.116,0,0.232-0.043,0.322-0.133l0.696-0.696l1.344,1.344c0.178,0.179,0.465,0.179,0.644,0
		s0.178-0.466,0-0.644l-1.344-1.344l2.525-2.525c0.178-0.178,0.178-0.465,0-0.644c-0.087-0.087-0.204-0.131-0.318-0.133
		l-1.848-1.847l2.22-2.223c0.178-0.178,0.178-0.465,0-0.644c-0.125-0.126-0.294-0.129-0.453-0.078
		c-0.022-0.044-0.018-0.095-0.055-0.131l-1.294-1.296l3.127-3.128c0.178-0.179,0.178-0.466,0-0.642
		c-0.178-0.178-0.466-0.178-0.644,0l-3.127,3.127l-1.834-1.834c-0.027-0.027-0.065-0.021-0.097-0.04v-1.614l1.093-1.094l1.124,1.124
		c0.178,0.179,0.466,0.179,0.644,0c0.178-0.179,0.178-0.466,0-0.644l-1.124-1.123l1.88-1.881c0.178-0.178,0.178-0.465,0-0.644
		c-0.178-0.178-0.465-0.178-0.644,0l-1.88,1.89l-1.093-1.094c0-4.879,0.025-4.336-0.058-5.955l1.105,1.105l-0.875,0.874
		c-0.287,0.287-0.08,0.776,0.322,0.776c0.116,0,0.233-0.044,0.322-0.133l0.875-0.875l2.206,2.206c0.178,0.179,0.465,0.179,0.642,0
		c0.178-0.179,0.178-0.466,0-0.644l-2.204-2.205l1.8-1.801c0.178-0.178,0.178-0.465,0-0.644s-0.466-0.179-0.644,0l-1.8,1.8
		l-1.809-1.809c-0.06-1.455-0.042-2.994,0.344-4.236l1.42,1.42l-1.593,1.593c-0.178,0.178-0.178,0.466,0,0.644s0.465,0.178,0.644,0
		l1.593-1.593l2.149,2.149c0.178,0.178,0.465,0.178,0.644,0c0.178-0.179,0.178-0.466,0-0.645l-2.149-2.148l2.073-2.072
		c0.062-0.063,0.073-0.145,0.093-0.223l1.458,1.459l-1.354,1.354c-0.178,0.179-0.178,0.466,0,0.645c0.178,0.178,0.465,0.178,0.644,0
		l1.354-1.355l0.338,0.339c0.178,0.178,0.466,0.178,0.642,0c0.178-0.179,0.178-0.466,0-0.644l-0.338-0.338l1.513-1.514l2.804,2.804
		c0.178,0.179,0.465,0.179,0.644,0c0.179-0.178,0.179-0.466,0-0.644l-1.067-1.067l2.409-2.409l1.631,1.631l-0.996,0.995
		c-0.179,0.179-0.179,0.466,0,0.644s0.466,0.178,0.644,0l0.994-0.994l1.303,1.301c0.178,0.179,0.465,0.179,0.643,0
		c0.179-0.178,0.179-0.465,0-0.643l-1.301-1.303l1.851-1.849c0.056,0,0.116,0,0.171,0c0.004,0.005,0.002,0.013,0.008,0.017
		l1.594,1.594l-0.516,0.517c-0.179,0.179-0.179,0.466,0,0.644c0.178,0.179,0.465,0.179,0.643,0l0.517-0.516l0.816,0.816
		c0.179,0.178,0.466,0.178,0.644,0c0.178-0.179,0.178-0.466,0-0.645l-0.816-0.816l1.333-1.332l1.272,1.272l-0.576,0.576
		c-0.178,0.179-0.178,0.466,0,0.644c0.178,0.179,0.465,0.179,0.643,0l0.576-0.576l0.895,0.895c0.178,0.178,0.465,0.178,0.643,0
		c0.179-0.178,0.179-0.465,0-0.644l-0.895-0.895c0.181-0.18,1.057-1.021,1.174-1.243c0.929,0.823,0.803,3.418,0.771,4.665
		c-0.025,1.015-0.017,32.784-0.017,33.8h-27.78V132.314z M79.502,93.52c0.851,0.017,1.666,0.025,2.431,0.029l-1.202,1.202
		L79.502,93.52z M84.652,93.523c1.166-0.023,1.061-0.009,2.08-0.105l-1.092,1.093L84.652,93.523z M88.365,93.285
		c0.775-0.041,1.555-0.025,2.18,0.149l-1.014,1.017L88.365,93.285z M124.593,121.23c0,12.021-2.374,11.084-15.021,11.084H93.918
		c0-1.02-0.009-32.738,0.017-33.752c0.234-9.316-1.104-6.557-23.951-7.17c-2.458-0.068-5.011,0.407-6.416,2.43
		c-0.467-0.236-0.92,0.291-0.433,0.777c-0.942,1.988-0.816,4.575-0.704,6.757c0.091,1.764,0.067,1.388,0.067,5.271
		c-0.033,0.097-0.033,0.182,0,0.278v25.409H42.007c-8.515,0-9.678-5.219-9.638-13.198l0.002-40.991
		c0.222,0.151,0.415,0.124,0.569-0.03l1.831-1.831l1.274,1.274c0.178,0.179,0.465,0.179,0.644,0s0.178-0.466,0-0.644l-1.274-1.274
		l3.289-3.289l2.122,2.122c0.178,0.178,0.465,0.178,0.644,0s0.178-0.465,0-0.644l-2.122-2.122l3.475-3.475l0.762,0.762l-1.551,1.551
		c-0.178,0.178-0.178,0.465,0,0.644s0.465,0.178,0.644,0l1.551-1.551l0.288,0.286c0.178,0.178,0.465,0.178,0.642,0
		c0.178-0.178,0.178-0.466,0-0.644l-0.285-0.287l3.756-3.756l0,0c0.116,0,0.232-0.043,0.322-0.133
		c0.089-0.089,0.133-0.206,0.133-0.322l0.898-0.898c0.178-0.178,0.178-0.465,0-0.644s-0.465-0.178-0.644,0l-0.804,0.803
		l-1.507-1.507c1.82-1.597,1.082-0.946,3.487-3.089l1.925,1.925c0.178,0.178,0.466,0.178,0.642,0c0.178-0.178,0.178-0.465,0-0.644
		l-1.063-1.065c0.072-0.02,0.151-0.029,0.207-0.085l3.422-3.422l1.556,1.557c0.178,0.178,0.466,0.178,0.644,0
		c0.178-0.178,0.178-0.466,0-0.642l-1.557-1.556l1.365-1.366c0.178-0.178,0.178-0.465,0-0.644c-0.125-0.122-0.291-0.129-0.447-0.082
		c0.197-0.178,0.395-0.364,0.589-0.542l2.676,2.678c0.178,0.178,0.465,0.178,0.642,0c0.178-0.178,0.178-0.465,0-0.644l-2.651-2.651
		c1.385-1.271,2.783-2.565,4.19-3.882l0.766,0.765l-2.673,2.675c-0.178,0.178-0.178,0.465,0,0.644c0.178,0.178,0.466,0.178,0.644,0
		l2.672-2.674l0.622,0.622c0.178,0.178,0.465,0.178,0.644,0s0.178-0.465,0-0.642l-0.622-0.622l1.368-1.367
		c0.178-0.178,0.178-0.465,0-0.644s-0.466-0.178-0.644,0l-1.367,1.367l-0.745-0.746c0.869-0.814,1.736-1.627,2.618-2.462
		l2.207,2.208c0.178,0.178,0.465,0.178,0.644,0s0.178-0.465,0-0.644l-2.192-2.193c1.082-1.027,2.165-2.06,3.269-3.12l0.765,0.766
		l-1.082,1.083c-0.178,0.178-0.178,0.466,0,0.642c0.178,0.178,0.465,0.178,0.644,0l1.083-1.084l0.444,0.444
		c0.178,0.178,0.465,0.178,0.644,0s0.178-0.465,0-0.644l-0.444-0.444l2.353-2.353l0.471,0.471c0.178,0.178,0.466,0.178,0.644,0
		c0.178-0.178,0.178-0.465,0-0.644l-0.471-0.471l0.616-0.617c0.178-0.178,0.178-0.465,0-0.644s-0.465-0.178-0.642,0l-0.616,0.616
		l-0.88-0.88c0.796-0.804,1.647-1.543,2.487-2.031l2.194,2.194c0.179,0.178,0.466,0.178,0.645,0c0.178-0.178,0.178-0.465,0-0.644
		l-0.621-0.62l0.808-0.805c0.038-0.038,0.034-0.091,0.057-0.136c2.133,1.487,4.218,5.083,5.833,6.903
		c10.234,11.525,21.555,22.042,33.638,31.251c1.794,1.396,4.149,3.017,6.354,3.775C124.783,77.669,124.593,93.471,124.593,121.23z
		 M72.758,38.435l0.869,0.869l-2.353,2.353l-0.765-0.765C71.211,40.162,71.969,39.278,72.758,38.435z M76.762,35.351
		c0.375-0.12,0.742-0.191,1.086-0.138c0.104,0.018,0.213,0.074,0.318,0.111l-0.717,0.716L76.762,35.351z M125.766,76.076
		c-2.135-0.646-4.029-1.915-6.226-3.622c-12-9.146-23.233-19.582-33.39-31.02c-5.682-6.396-7.034-12.895-15.859-2.989
		c-3.087,3.458-24.92,23.726-39.964,35.867c-7.765,6.328-10.616,1.316-9.52-2.445c0.553-1.822,1.769-3.333,3.184-4.976
		c12.898-14.982,27.615-28.3,43.744-39.589C79.52,19,85.639,19.522,97.148,31.4c9.27,9.527,21.364,21.918,31.742,32.585
		C137.907,73.224,131.095,77.58,125.766,76.076z"/>
	<path d="M67.776,62.214c-2.367,4.182-1.122,9.908,2.778,12.766c7.887,5.782,19.14-2.42,15.229-12.022
		C82.751,55.507,71.631,55.404,67.776,62.214z M77.458,59.669c0.16-0.16,0.155-0.402,0.025-0.58c0.055,0.004,0.107,0.015,0.162,0.02
		c-0.023,0.14-0.005,0.286,0.104,0.393l0.578,0.578l-0.298,0.298l-0.641-0.64L77.458,59.669z M78.838,59.306
		c0.071,0.016,0.141,0.036,0.209,0.054l-0.078,0.078L78.838,59.306z M76.787,59.055l-0.121,0.122
		c-0.133-0.016-0.268,0.011-0.371,0.113c-0.102,0.102-0.129,0.236-0.113,0.371l-1.105,1.105l-1.229-1.229
		c0.913-0.305,1.886-0.481,2.893-0.481C76.758,59.053,76.773,59.055,76.787,59.055z M70.727,61.373
		c0.331-0.313,0.697-0.589,1.079-0.845l-0.962,0.962L70.727,61.373z M68.591,68.563l2.166,2.166l-0.876,0.876
		c-0.007,0.007-0.003,0.018-0.011,0.027C69.249,70.707,68.811,69.662,68.591,68.563z M71.629,73.513
		c-0.471-0.345-0.878-0.76-1.251-1.204c0.049-0.022,0.105-0.02,0.146-0.06l4.446-4.445c0.178-0.178,0.178-0.465,0-0.644
		s-0.466-0.178-0.644,0L71.4,70.087l-2.758-2.758c-0.062-0.062-0.144-0.073-0.222-0.091c-0.063-1.438,0.233-2.88,0.938-4.127
		c0.216-0.382,0.474-0.733,0.752-1.067l1.629,1.629l-1.324,1.324l-0.748-0.748c-0.178-0.178-0.465-0.178-0.644,0
		s-0.178,0.465,0,0.644l0.756,0.756c-0.153,0.178-0.156,0.444,0.013,0.613c0.153,0.153,0.396,0.196,0.613,0.013l1.907,1.907
		c0.178,0.178,0.465,0.178,0.642,0c0.178-0.178,0.178-0.465,0-0.644l-1.898-1.898l1.324-1.326l0.876,0.876
		c0.178,0.178,0.465,0.178,0.644,0s0.178-0.465,0-0.644l-0.876-0.876l0.353-0.353c0.178-0.178,0.178-0.466,0-0.644
		c-0.178-0.178-0.466-0.178-0.644,0l-0.351,0.351l-0.896-0.896l1.838-1.838l1.111,1.111l-0.876,0.876
		c-0.178,0.178-0.178,0.465,0,0.644s0.465,0.178,0.642,0l0.876-0.876l0.887,0.887c0.178,0.178,0.465,0.178,0.642,0
		c0.178-0.178,0.178-0.465,0-0.644l-0.887-0.887l1.026-1.025l0.639,0.64l-0.49,0.493c-0.178,0.178-0.178,0.465,0,0.644
		s0.465,0.178,0.644,0l0.491-0.493l0.481,0.481c0.179,0.178,0.466,0.178,0.644,0c0.178-0.178,0.178-0.465,0-0.642l-0.481-0.482
		l0.298-0.298l1.432,1.431c0.178,0.178,0.465,0.178,0.643,0c0.179-0.178,0.179-0.465,0-0.642l-1.43-1.431l0.248-0.249
		c0.051-0.051,0.057-0.122,0.078-0.188c1.91,0.735,3.398,2.122,4.162,3.999C87.306,71.523,78.057,78.23,71.629,73.513z"/>
	<path d="M118.738,61.244l0.945-0.945c0.178-0.178,0.178-0.466,0-0.644c-0.178-0.178-0.465-0.178-0.644,0l-0.945,0.946l-2.681-2.682
		l0.789-0.789c0.179-0.178,0.179-0.465,0-0.644c-0.178-0.178-0.465-0.178-0.643,0l-0.789,0.789l-2.611-2.611l1.238-1.238
		c0.178-0.178,0.178-0.465,0-0.644s-0.466-0.178-0.645,0l-1.237,1.238l-3.373-3.373l0.924-0.924c0.179-0.178,0.179-0.465,0-0.644
		s-0.466-0.178-0.642,0l-0.926,0.923l-1.711-1.71l1.635-1.635c0.178-0.178,0.178-0.465,0-0.642c-0.178-0.178-0.466-0.178-0.645,0
		l-1.634,1.634l-2.058-2.058l0.163-0.164c0.179-0.178,0.179-0.465,0-0.644s-0.466-0.178-0.642,0l-0.164,0.164l-1.549-1.549
		c-0.178-0.178-0.466-0.178-0.644,0c-0.179,0.178-0.179,0.465,0,0.642l1.549,1.549l-1.133,1.133c-0.179,0.178-0.179,0.465,0,0.644
		s0.466,0.178,0.644,0l1.133-1.133l2.076,2.077c-0.129,0.178-0.135,0.42,0.025,0.58c0.153,0.152,0.36,0.187,0.58,0.025l1.729,1.729
		l-0.786,0.785c-0.178,0.178-0.178,0.466,0,0.644c0.179,0.178,0.466,0.178,0.645,0l0.785-0.786l3.373,3.373l-0.51,0.509
		c-0.178,0.178-0.178,0.465,0,0.642c0.179,0.178,0.466,0.178,0.645,0l0.509-0.509l2.61,2.611l-0.715,0.722
		c-0.178,0.178-0.178,0.465,0,0.644c0.179,0.178,0.467,0.178,0.645,0l0.718-0.718l2.681,2.68l-1.271,1.271
		c-0.178,0.178-0.178,0.465,0,0.644s0.465,0.178,0.644,0l1.271-1.271l2.759,2.758c0.179,0.178,0.466,0.178,0.644,0
		s0.178-0.465,0-0.644L118.738,61.244z"/>
	<path d="M120.217,97.688H118.6v-2.09c0-0.25-0.203-0.454-0.454-0.454s-0.454,0.204-0.454,0.454v2.09h-0.658
		c-0.252,0-0.455,0.203-0.455,0.454s0.203,0.454,0.455,0.454h0.658v2.699l-1.139,1.14c-0.178,0.179-0.178,0.466,0,0.644
		s0.465,0.178,0.644,0l0.497-0.496v5.129h-1.773c-0.251,0-0.455,0.203-0.455,0.455c0,0.25,0.204,0.454,0.455,0.454h1.773v3.704
		h-1.295c-0.251,0-0.455,0.203-0.455,0.454s0.204,0.454,0.455,0.454h1.295v4.021h-2.41c-0.25,0-0.454,0.204-0.454,0.455
		s0.204,0.455,0.454,0.455h2.41v4c0,0.25,0.203,0.454,0.454,0.454s0.454-0.204,0.454-0.454v-4h1.32c0.251,0,0.455-0.204,0.455-0.455
		s-0.204-0.455-0.455-0.455H118.6v-4.021h1.017c0.251,0,0.454-0.203,0.454-0.454s-0.203-0.454-0.454-0.454H118.6v-3.706h0.746
		c0.25,0,0.454-0.204,0.454-0.454c0-0.252-0.204-0.455-0.454-0.455H118.6v-6.038l0.658-0.66c0.179-0.179,0.179-0.466,0-0.644
		c-0.178-0.178-0.465-0.178-0.643,0l-0.018,0.017v-1.788h1.617c0.25,0,0.454-0.203,0.454-0.454S120.467,97.688,120.217,97.688z"/>
	<path d="M41.929,127.142c-1.14,0.604-2.464,0.217-3.495-0.574l0.907-1.445c0.135-0.211,0.071-0.493-0.144-0.628
		c-0.209-0.127-0.493-0.07-0.625,0.145l-0.814,1.298c-0.718-0.82-1.011-1.675-1.218-2.798l1.229-1.181
		c0.182-0.175,0.188-0.462,0.013-0.644c-0.173-0.184-0.46-0.184-0.644-0.015l-0.766,0.735c-0.1-1.288,0.002-2.846,0.062-4.164
		l1.942-0.964c0.224-0.112,0.316-0.384,0.206-0.608c-0.113-0.227-0.386-0.313-0.611-0.204l-1.491,0.739l0.193-4.188
		c0.56-0.209,1.082-0.525,1.503-0.951c0.176-0.178,0.176-0.466-0.002-0.644c-0.18-0.174-0.467-0.178-0.644,0.004
		c-0.234,0.236-0.516,0.416-0.813,0.57l0.231-5.02l1.027,0.006h0.001c0.251,0,0.455-0.202,0.455-0.453s-0.202-0.455-0.453-0.457
		l-0.989-0.005l0.149-3.257c0.011-0.252-0.182-0.463-0.433-0.476c-0.26-0.004-0.461,0.184-0.474,0.433l-0.151,3.295l-1.442-0.008
		c0,0,0,0-0.002,0c-0.251,0-0.455,0.201-0.455,0.453c0,0.25,0.202,0.454,0.453,0.456l1.404,0.007l-0.246,5.338
		c-0.358,0.068-0.724,0.099-1.083,0.043c-0.247-0.039-0.48,0.133-0.518,0.379c-0.039,0.25,0.133,0.482,0.38,0.519
		c0.535,0.086,0.786,0.044,1.18-0.011l-0.204,4.426l-0.766,0.38c-0.224,0.11-0.316,0.384-0.206,0.606
		c0.115,0.235,0.398,0.316,0.609,0.206l0.314-0.156c-0.069,1.503-0.16,2.993,0.047,4.491l-1.413,1.361
		c-0.182,0.175-0.187,0.462-0.013,0.645c0.167,0.176,0.455,0.19,0.642,0.014l0.983-0.943c0.358,1.414,0.846,2.133,1.515,2.825
		l-0.477,0.759c-0.133,0.213-0.069,0.492,0.144,0.627c0.224,0.137,0.499,0.061,0.627-0.144l0.395-0.63
		c1.609,1.199,3.196,1.242,4.398,0.617c0.222-0.117,0.307-0.393,0.191-0.615C42.427,127.113,42.151,127.025,41.929,127.142z"/>
</g>
</svg>
