<?xml version="1.0" encoding="utf-8"?>
<!-- Generator: Adobe Illustrator 16.0.0, SVG Export Plug-In . SVG Version: 6.00 Build 0)  -->
<!DOCTYPE svg PUBLIC "-//W3C//DTD SVG 1.1//EN" "http://www.w3.org/Graphics/SVG/1.1/DTD/svg11.dtd">
<svg version="1.1" id="Capa_1" xmlns="http://www.w3.org/2000/svg" xmlns:xlink="http://www.w3.org/1999/xlink" x="0px" y="0px"
	 width="150px" height="150px" viewBox="0 0 150 150" enable-background="new 0 0 150 150" xml:space="preserve">
<g>
	<path d="M70.612,78.703c-0.82-0.369-1.698-0.186-2.465,0.518c-0.498,0.459-0.806,1.09-0.844,1.731
		c-0.037,0.606,0.166,1.219,0.557,1.682c0.461,0.546,1.161,0.842,1.863,0.842c0.375,0,0.753-0.084,1.093-0.261
		c0.954-0.492,1.504-1.662,1.279-2.719C71.932,79.72,71.378,79.05,70.612,78.703z M70.329,82.27
		c-0.533,0.275-1.273,0.129-1.655-0.321c-0.216-0.257-0.329-0.597-0.309-0.933c0.022-0.37,0.204-0.738,0.502-1.012
		c0.447-0.41,0.888-0.518,1.308-0.332c0.45,0.203,0.787,0.604,0.88,1.043C71.183,81.312,70.863,81.993,70.329,82.27z"/>
	<path d="M117.6,78.751c-1.877-1.362-4.185-1.983-6.397-2.45c-9.726-2.034-20.346-1.397-25.004-0.503
		c-0.169-1.25-0.273-1.607-0.765-1.607c-1.74-0.032-3.487,0.028-5.205,0.166c-6.705-9.439-21.032-6.582-25.798,2.132
		c-5.5,10.058,1.869,22.389,13.175,22.389c3.221,0,6.467-1.064,9.132-2.989c-0.011,0.697-0.05,1.361-0.094,1.914
		c-0.198,2.71-0.635,5.394-1.294,7.971c-0.248,0.948-0.5,1.853-0.555,2.835c-0.292,6.071,8.42,5.743,8.531-1.553
		c0.081-4.109-1.986-5.622-1.732-11.723c1.574,0,3.115-0.111,4.728-0.365c0.231-0.038,0.412-0.222,0.443-0.456
		c0.104-0.783,0.182-1.687,0.238-2.783l21.999-0.417c2.224-0.041,4.742-0.088,6.997-0.983c2.562-1.017,4.396-3.13,4.668-5.384
		C120.938,82.738,119.732,80.306,117.6,78.751z M110.983,77.343c2.983,0.629,6.028,1.514,7.715,4.065
		c-0.064,0.003-0.127,0.024-0.177,0.074l-0.694,0.694l-0.771-0.771c-0.104-0.104-0.272-0.104-0.377,0s-0.104,0.272,0,0.376
		l0.771,0.771l-1.875,1.875c-0.104,0.105-0.104,0.273,0,0.377c0.103,0.103,0.272,0.104,0.377,0l0.335-0.335l0.832,0.832
		c-0.057,0.006-0.116,0.021-0.16,0.066l-1.747,1.748l-1.309-1.309l0.59-0.592c0.104-0.104,0.104-0.271,0-0.376s-0.272-0.104-0.376,0
		l-0.592,0.59l-0.072-0.073c-0.104-0.104-0.272-0.104-0.377,0c-0.104,0.104-0.104,0.273,0,0.377l0.075,0.074l-1.659,1.657
		l-1.309-1.308l0.727-0.728c0.104-0.104,0.104-0.271,0-0.375c-0.104-0.104-0.271-0.104-0.377,0l-0.726,0.727l-0.364-0.364
		c-0.104-0.104-0.272-0.104-0.376,0c-0.104,0.105-0.104,0.273,0,0.378l0.363,0.363l-1.656,1.656l-1.771-1.775l0.486-0.486
		c0.104-0.104,0.104-0.272,0-0.377c-0.104-0.104-0.271-0.104-0.377,0l-0.486,0.487l-0.422-0.422c-0.105-0.104-0.273-0.104-0.378,0
		c-0.104,0.104-0.104,0.272,0,0.376l0.423,0.423l-1.57,1.571l-1.163-1.165l1.369-1.369c0.104-0.104,0.104-0.272,0-0.376
		c-0.104-0.104-0.272-0.104-0.376,0l-1.369,1.369l-0.83-0.829c-0.104-0.104-0.272-0.104-0.376,0c-0.104,0.104-0.104,0.272,0,0.376
		l0.828,0.829l-1.744,1.745l-1.541-1.541l0.988-0.987c0.104-0.104,0.104-0.271,0-0.376c-0.104-0.104-0.272-0.104-0.376,0
		l-0.988,0.987l-0.684-0.684c-0.104-0.104-0.271-0.104-0.376,0c-0.104,0.104-0.104,0.272,0,0.376l0.683,0.683l-1.482,1.483
		l-0.757-0.756l0.661-0.661c0.104-0.104,0.104-0.272,0-0.377c-0.104-0.104-0.273-0.104-0.378,0l-0.66,0.662l-0.829-0.829
		c-0.104-0.104-0.271-0.104-0.377,0c-0.104,0.104-0.104,0.272,0,0.377l0.83,0.829l-1.105,1.104l-1.38-1.38
		c-0.103-0.104-0.271-0.105-0.376,0c-0.104,0.104-0.104,0.271,0,0.376l1.381,1.382l-1.496,1.495
		c-0.062,0.062-0.074,0.143-0.064,0.223l-2.488,0.047c0.036-0.095,0.035-0.2-0.042-0.275l-0.357-0.358l1.135-1.134l1.429,1.428
		c0.053,0.053,0.119,0.078,0.188,0.078c0.067,0,0.136-0.025,0.188-0.078c0.104-0.104,0.104-0.271,0-0.376l-1.43-1.429l3.185-3.184
		c0.104-0.104,0.104-0.271,0-0.375c-0.105-0.104-0.273-0.104-0.377,0l-3.184,3.184l-0.422-0.422c-0.105-0.104-0.273-0.104-0.376,0
		c-0.105,0.104-0.105,0.272,0,0.377l0.421,0.421l-1.134,1.135l-0.888-0.887c-0.246-0.247-0.625,0.127-0.376,0.377l0.886,0.887
		l-0.667,0.668l-0.335,0.006c0.112-4.224-0.257-10.125-0.716-13.819C88.202,76.479,99.516,74.947,110.983,77.343z M110.183,90.219
		l-0.346-0.346l1.658-1.658l1.751,1.753C112.24,90.129,111.21,90.188,110.183,90.219z M106.037,90.304l1.739-1.738l1.308,1.309
		l-0.381,0.38L106.037,90.304z M94.746,89.63c-0.012-0.018-0.008-0.04-0.024-0.057l-0.717-0.717l1.105-1.104l0.757,0.756
		L94.746,89.63z M94.346,89.949c0.017,0.017,0.038,0.013,0.057,0.023l-0.147,0.148c-0.105,0.104-0.105,0.271,0,0.376
		c0.018,0.02,0.047,0.016,0.068,0.029l-2.025,0.038l1.33-1.331L94.346,89.949z M94.631,90.497l1.612-1.613l0.744,0.744
		c0.053,0.053,0.119,0.078,0.188,0.078c0.067,0,0.137-0.025,0.188-0.078c0.104-0.104,0.104-0.272,0-0.377l-0.744-0.743l1.484-1.483
		l1.54,1.541l-1.613,1.612c-0.077,0.077-0.078,0.182-0.041,0.277l-3.416,0.064C94.592,90.509,94.614,90.512,94.631,90.497z
		 M100.02,88.941l0.923,0.923c0.053,0.052,0.12,0.078,0.188,0.078s0.136-0.026,0.188-0.078c0.104-0.104,0.104-0.272,0-0.377
		l-0.922-0.922l1.743-1.744l1.163,1.164l-2.194,2.194c-0.061,0.061-0.075,0.14-0.064,0.219l-2.528,0.048L100.02,88.941z
		 M103.68,88.36l1.773,1.774l-0.16,0.16c-0.007,0.007-0.004,0.017-0.011,0.022l-3.629,0.069L103.68,88.36z M105.83,89.759
		l-1.774-1.773l1.571-1.57l1.772,1.773L105.83,89.759z M108.151,88.188l1.657-1.656l1.308,1.308l-1.658,1.657L108.151,88.188z
		 M111.869,87.84l1.658-1.658l1.309,1.309l-1.657,1.658L111.869,87.84z M88.696,90.631l-0.544,0.012l0.277-0.278L88.696,90.631z
		 M85.961,86.189l-0.909-0.91l0.838-0.838C85.917,85.019,85.942,85.602,85.961,86.189z M55.363,77
		c4.333-7.922,17.264-10.664,23.632-2.539c-4.852,0.487-12.515,2.229-15.518,4.3c-3.366,2.326-3.607,5.971-1.501,8.902
		c2.642,3.695,9.434,6.303,14.078,7.157c0.09,0.016,0.177,0.042,0.267,0.059C63.949,104.154,48.209,90.084,55.363,77z
		 M82.265,107.034c0,0.002,0,0.003,0,0.003c-0.085,5.787-6.627,6.311-6.406,1.625c0.049-0.875,0.299-1.773,0.521-2.622
		c1.056-4.12,1.482-8.502,1.423-10.942c1.006,0.12,2.091,0.195,2.743,0.217C80.273,101.766,82.342,103.056,82.265,107.034z
		 M73.648,93.177c0.11-0.09,0.742-0.729,0.844-0.83l1.071,1.071c0.104,0.104,0.271,0.104,0.375,0c0.104-0.104,0.104-0.272,0-0.377
		l-1.071-1.071l1.91-1.909c0.104-0.104,0.104-0.272,0-0.377s-0.272-0.104-0.375,0l-1.911,1.91l-0.624-0.624
		c-0.104-0.104-0.272-0.104-0.376,0s-0.104,0.272,0,0.377l0.624,0.623l-0.82,0.82c-0.078,0.078-0.078,0.186-0.039,0.281
		c-2.114-0.61-4.46-1.582-6.493-2.76c-0.001,0-0.001-0.001-0.002-0.001c-1.155-0.665-2.817-1.728-3.919-3.268
		c-1.795-2.495-1.599-5.443,1.24-7.406c2.843-1.961,11.992-4.483,20.949-4.388c0.356,1.908,0.703,6.221,0.836,8.758
		c-0.102-0.062-0.231-0.065-0.319,0.023l-0.873,0.873l-0.229-0.229c-0.104-0.104-0.272-0.105-0.376,0
		c-0.104,0.104-0.104,0.272,0,0.377l0.277,0.277c-0.009,0.078,0.008,0.155,0.067,0.215c0.052,0.052,0.119,0.078,0.188,0.078
		c0.01,0,0.017-0.011,0.026-0.011l1.354,1.354c0.019,0.747,0.027,1.493,0.024,2.224c-0.003,0.681-0.016,1.351-0.038,1.997
		c-0.006,0.128-0.013,0.242-0.019,0.364l-0.365,0.365l-1.099-1.1l0.015-0.015c0.104-0.104,0.104-0.273,0-0.377
		c-0.103-0.104-0.271-0.104-0.376,0l-0.016,0.015l-0.804-0.805l1.173-1.173l0.604,0.604c0.103,0.102,0.271,0.104,0.377,0
		c0.104-0.104,0.104-0.272,0-0.377l-0.604-0.604l0.679-0.679c0.104-0.104,0.104-0.272,0-0.377s-0.272-0.104-0.377,0l-0.679,0.679
		l-0.574-0.573c-0.105-0.105-0.273-0.103-0.377,0c-0.104,0.104-0.104,0.272,0,0.377l0.575,0.574l-1.214,1.214
		c-0.053,0.053-0.078,0.12-0.078,0.188c-0.007,0.005-0.015,0.004-0.021,0.009c-0.104,0.104-0.104,0.272,0,0.377l0.944,0.943
		l-1.543,1.542l-1.371-1.369l0.64-0.639c0.104-0.104,0.104-0.272,0-0.377c-0.104-0.104-0.271-0.105-0.375,0l-0.64,0.639
		l-0.132-0.132c-0.104-0.104-0.272-0.104-0.377,0s-0.104,0.272,0,0.376l0.132,0.133l-1.443,1.443l-0.78-0.779l1.882-1.883
		c0.104-0.104,0.104-0.272,0-0.377c-0.104-0.104-0.272-0.104-0.377,0l-1.882,1.882l-0.599-0.598c-0.104-0.104-0.272-0.104-0.377,0
		c-0.104,0.104-0.104,0.271,0,0.376l0.599,0.6l-1.041,1.041c-0.104,0.104-0.104,0.272,0,0.376c0.103,0.103,0.271,0.104,0.377,0
		l1.041-1.042l0.78,0.78l-0.476,0.476c-0.104,0.104-0.104,0.271,0,0.376c0.103,0.104,0.271,0.105,0.376,0l0.477-0.476l0.791,0.792
		c0.104,0.104,0.272,0.104,0.376,0c0.104-0.104,0.104-0.271,0-0.377l-0.792-0.791l1.444-1.444l1.37,1.37l-0.993,0.992
		c-0.248,0.247,0.127,0.626,0.377,0.377l0.993-0.993l1.111,1.111C80.177,94.401,76.949,94.091,73.648,93.177z M82.566,92.732
		l1.543-1.543l1.1,1.1l-1.542,1.541L82.566,92.732z M84.104,94.146l1.801-1.801c-0.04,0.602-0.087,1.143-0.144,1.629
		C85.211,94.055,84.658,94.098,84.104,94.146z M119.613,84.816c-0.228,1.874-1.799,3.648-4.006,4.523
		c-0.563,0.224-1.146,0.386-1.738,0.51c-0.005-0.004-0.003-0.012-0.009-0.018l-0.307-0.308l1.658-1.657l0.842,0.843
		c0.104,0.104,0.271,0.104,0.378,0c0.104-0.104,0.104-0.272,0-0.377l-0.844-0.843l1.749-1.748c0.043-0.044,0.06-0.102,0.066-0.159
		l0.76,0.761c0.103,0.103,0.271,0.104,0.376,0c0.104-0.104,0.104-0.272,0-0.377l-1.876-1.876l1.164-1.164l0.809,0.81
		c0.104,0.104,0.272,0.104,0.378,0c0.104-0.104,0.104-0.272,0-0.375l-0.811-0.811l0.694-0.694c0.019-0.019,0.016-0.044,0.028-0.064
		C119.473,82.766,119.734,83.82,119.613,84.816z"/>
	<path d="M90.518,79.003c0.894-0.124,1.787-0.217,2.681-0.294l0.006,0.546c0.002,0.146,0.12,0.263,0.267,0.263c0,0,0.001,0,0.002,0
		c0.147-0.002,0.266-0.121,0.263-0.27l-0.006-0.576c0.771-0.059,1.546-0.101,2.318-0.125c0.042,0.251,0.102,0.499,0.188,0.737
		c0.052,0.141,0.207,0.209,0.341,0.158c0.139-0.05,0.208-0.202,0.157-0.341c-0.067-0.183-0.095-0.378-0.132-0.569
		c0.869-0.018,1.738-0.016,2.608,0.01v0.106c0,0.118,0,0.279,0.063,0.433c0.083,0.215,0.272,0.363,0.48,0.376
		c0.003,0.001,0.009,0.001,0.015,0.001c0.138,0,0.247-0.128,0.257-0.27c0.009-0.146-0.11-0.292-0.257-0.302
		c-0.025-0.062-0.025-0.155-0.025-0.239v-0.096c0.749,0.029,1.496,0.077,2.243,0.139l-0.016,0.587
		c-0.003,0.146,0.111,0.27,0.26,0.272c0.003,0,0.004,0,0.006,0c0.146,0,0.263-0.115,0.267-0.26l0.014-0.547
		c0.672,0.063,1.344,0.134,2.014,0.222c0.022,0.275,0.064,0.549,0.134,0.818c0.033,0.136,0.17,0.229,0.323,0.193
		c0.142-0.037,0.229-0.182,0.192-0.324c-0.052-0.197-0.075-0.399-0.098-0.602c0.69,0.099,1.38,0.209,2.068,0.336l-0.14,0.503
		c-0.046,0.167,0.08,0.336,0.257,0.336c0.115,0,0.224-0.076,0.256-0.195l0.15-0.54c0.445,0.087,0.893,0.167,1.337,0.266
		c0.021,0.004,0.04,0.007,0.06,0.007c0.122,0,0.23-0.085,0.26-0.208c0.032-0.145-0.06-0.286-0.201-0.318
		c-0.437-0.097-0.875-0.175-1.312-0.261l0.151-0.545c0.04-0.143-0.044-0.289-0.186-0.329c-0.142-0.038-0.288,0.044-0.329,0.185
		l-0.161,0.584c-0.742-0.137-1.486-0.258-2.229-0.363c0.002-0.131-0.009-0.261,0.007-0.392c0.016-0.146-0.091-0.276-0.237-0.293
		c-0.15-0.021-0.276,0.091-0.292,0.237c-0.013,0.123-0.003,0.244-0.007,0.366c-0.668-0.087-1.335-0.156-2.004-0.218l0.006-0.212
		c0.004-0.147-0.112-0.27-0.259-0.273c-0.003,0-0.006,0-0.008,0c-0.145,0-0.262,0.114-0.267,0.259L102,78.157
		c-0.752-0.062-1.506-0.109-2.259-0.139l-0.003-0.45c0-0.146-0.118-0.265-0.265-0.265c0,0,0,0-0.001,0
		c-0.147,0-0.266,0.119-0.266,0.267l0.002,0.438c-0.89-0.025-1.781-0.026-2.673-0.008c-0.011-0.229-0.02-0.457,0.014-0.685
		c0.021-0.146-0.08-0.281-0.227-0.301c-0.143-0.028-0.281,0.08-0.3,0.226c-0.037,0.258-0.042,0.517-0.03,0.775
		c-0.757,0.024-1.513,0.064-2.268,0.121l-0.007-0.637c-0.003-0.146-0.12-0.263-0.266-0.263c-0.001,0-0.002,0-0.003,0
		c-0.147,0.002-0.265,0.121-0.264,0.27l0.006,0.667c-0.915,0.078-1.832,0.172-2.747,0.299c-0.146,0.021-0.247,0.155-0.228,0.3
		C90.239,78.92,90.362,79.019,90.518,79.003z"/>
	<path d="M69.432,88.571c-0.439-0.04-0.87-0.143-1.282-0.289l0.229-0.352c0.081-0.122,0.046-0.288-0.077-0.368
		c-0.119-0.081-0.287-0.045-0.367,0.077l-0.287,0.437c-0.721-0.339-1.364-0.836-1.874-1.454l0.471-0.585
		c0.093-0.114,0.074-0.282-0.039-0.374c-0.115-0.092-0.283-0.073-0.375,0.04l-0.387,0.479c-0.277-0.419-0.486-0.877-0.634-1.354
		l0.29-0.263c0.108-0.099,0.117-0.267,0.02-0.377c-0.101-0.11-0.269-0.118-0.376-0.019l-0.081,0.072
		c-0.093-0.475-0.129-0.959-0.094-1.442l0.297-0.107c0.139-0.05,0.21-0.202,0.16-0.34c-0.051-0.139-0.201-0.208-0.341-0.16
		l-0.039,0.014c0.035-0.185,0.077-0.369,0.132-0.55c0.042-0.141-0.037-0.288-0.178-0.331c-0.144-0.047-0.29,0.038-0.332,0.178
		c-0.091,0.298-0.146,0.603-0.188,0.908l-0.479,0.175c-0.139,0.052-0.21,0.203-0.16,0.341c0.052,0.139,0.203,0.209,0.341,0.16
		l0.249-0.092c-0.02,0.56,0.037,1.119,0.172,1.661l-0.365,0.33c-0.109,0.1-0.117,0.268-0.019,0.377
		c0.102,0.111,0.269,0.115,0.377,0.02l0.181-0.164c0.163,0.454,0.375,0.892,0.647,1.296c0.021,0.034,0.05,0.064,0.073,0.097
		l-0.256,0.317c-0.093,0.115-0.074,0.282,0.039,0.375c0.121,0.096,0.286,0.07,0.375-0.04l0.175-0.216
		c0.531,0.62,1.192,1.119,1.925,1.476l-0.281,0.43c-0.081,0.123-0.047,0.289,0.077,0.368c0.125,0.081,0.288,0.045,0.368-0.076
		l0.332-0.509c0.491,0.187,1.004,0.316,1.529,0.365c0.009,0.001,0.018,0.001,0.026,0.001c0.136,0,0.252-0.104,0.265-0.24
		C69.685,88.715,69.577,88.585,69.432,88.571z"/>
	<path d="M59.646,76.427c0.409-0.485,0.871-0.923,1.363-1.326c0.203,0.124,0.427,0.215,0.66,0.259
		c0.018,0.004,0.033,0.005,0.051,0.005c0.125,0,0.236-0.088,0.26-0.216c0.028-0.145-0.066-0.284-0.21-0.311
		c-0.103-0.019-0.19-0.074-0.286-0.115c0.718-0.524,1.499-0.958,2.324-1.285l0.293,0.294c0.105,0.105,0.273,0.102,0.376,0
		c0.104-0.104,0.104-0.271,0-0.377l-0.111-0.11c0.697-0.231,1.413-0.403,2.147-0.474c0.146-0.015,0.253-0.145,0.24-0.289
		c-0.015-0.147-0.152-0.263-0.29-0.241c-0.863,0.084-1.708,0.287-2.521,0.579l-0.189-0.19c-0.104-0.104-0.271-0.105-0.377,0
		c-0.104,0.104-0.104,0.271,0,0.377l0.032,0.031c-0.851,0.358-1.651,0.822-2.389,1.378c-0.061-0.059-0.134-0.104-0.182-0.172
		c-0.086-0.121-0.252-0.148-0.371-0.063c-0.12,0.085-0.148,0.251-0.063,0.371c0.053,0.075,0.118,0.143,0.182,0.21
		c-0.513,0.429-0.988,0.897-1.414,1.413l-0.126-0.068c-0.129-0.069-0.291-0.021-0.36,0.107c-0.069,0.13-0.021,0.291,0.107,0.36
		l0.055,0.03c-0.372,0.498-0.71,1.019-0.986,1.576l-0.595-0.069c-0.108-0.007-0.221,0.047-0.271,0.149l-0.044,0.097
		c-0.059,0.136,0.005,0.292,0.14,0.35c0.098,0.037,0.209,0.017,0.284-0.051l0.264,0.031c-0.354,0.825-0.598,1.688-0.731,2.575
		l-0.385-0.148c-0.142-0.054-0.291,0.017-0.344,0.154c-0.053,0.137,0.016,0.29,0.152,0.343l0.511,0.196
		c-0.127,1.274-0.031,2.565,0.281,3.808c-0.055,0.036-0.108,0.074-0.166,0.102c-0.135,0.06-0.195,0.216-0.136,0.351
		c0.059,0.134,0.215,0.194,0.352,0.135c0.031-0.014,0.058-0.036,0.088-0.052c0.29,0.948,0.697,1.861,1.244,2.693
		c0.077,0.117,0.237,0.16,0.369,0.076c0.122-0.082,0.157-0.245,0.075-0.37c-0.556-0.847-0.956-1.781-1.231-2.753
		c0.218-0.235,0.378-0.526,0.433-0.846c0.024-0.146-0.071-0.282-0.216-0.308c-0.152-0.032-0.284,0.073-0.308,0.217
		c-0.016,0.091-0.045,0.181-0.083,0.267c-0.221-1.033-0.281-2.095-0.188-3.147c0.104-0.004,0.199-0.064,0.238-0.167
		c0.054-0.138-0.016-0.291-0.151-0.344l-0.026-0.011c0.13-0.933,0.383-1.846,0.769-2.708l0.129,0.016
		c0.011,0.001,0.021,0.002,0.029,0.002c0.135,0,0.248-0.101,0.265-0.236c0.015-0.126-0.07-0.228-0.186-0.268
		c0.258-0.495,0.561-0.964,0.897-1.407l0.145,0.077c0.131,0.07,0.291,0.021,0.36-0.107c0.07-0.13,0.022-0.29-0.107-0.36
		L59.646,76.427z"/>
</g>
<rect x="34.122" y="10.781" fill="none" stroke="#000000" stroke-miterlimit="10" width="2.848" height="129.281"/>
<rect x="36.97" y="9.568" fill="none" stroke="#000000" stroke-miterlimit="10" width="12.151" height="129.281"/>
<polygon stroke="#000000" stroke-miterlimit="10" points="35.317,72.914 37.06,63.909 41.595,73.644 43.114,66.95 46.506,74.194 
	47.24,70.985 48.34,70.893 46.874,76.305 43.664,70.618 41.829,75.57 37.152,67.225 35.867,72.36 "/>
<path d="M44.666,62.666c-0.236-1.711-0.414-3.425-0.563-5.139l1.045-0.011c0.28-0.004,0.504-0.23,0.504-0.511c0,0,0-0.002,0-0.004
	c-0.003-0.283-0.232-0.508-0.515-0.504l-1.106,0.011c-0.112-1.479-0.19-2.962-0.239-4.444c0.482-0.081,0.958-0.195,1.415-0.362
	c0.268-0.099,0.4-0.396,0.301-0.653c-0.095-0.265-0.388-0.399-0.653-0.302c-0.351,0.129-0.723,0.182-1.091,0.254
	c-0.034-1.667-0.03-3.333,0.019-5h0.205c0.226,0,0.536,0,0.83-0.121c0.413-0.16,0.696-0.521,0.72-0.92
	c0.002-0.006,0.002-0.017,0.002-0.028c0-0.265-0.245-0.473-0.516-0.493c-0.282-0.018-0.561,0.213-0.58,0.493
	c-0.119,0.048-0.298,0.048-0.458,0.048H43.8c0.057-1.436,0.149-2.869,0.267-4.299l1.125,0.028c0.28,0.007,0.516-0.212,0.521-0.498
	c0-0.004,0-0.006,0-0.011c0-0.278-0.219-0.504-0.498-0.511l-1.049-0.026c0.121-1.288,0.258-2.577,0.426-3.861
	c0.526-0.044,1.051-0.123,1.569-0.256c0.258-0.063,0.438-0.327,0.369-0.62c-0.069-0.272-0.348-0.438-0.62-0.368
	c-0.38,0.099-0.767,0.145-1.155,0.186c0.189-1.323,0.402-2.645,0.645-3.964l0.964,0.267c0.32,0.088,0.644-0.153,0.644-0.493
	c0-0.222-0.146-0.427-0.375-0.491l-1.037-0.287c0.168-0.854,0.32-1.711,0.511-2.563c0.008-0.04,0.012-0.077,0.012-0.114
	c0-0.234-0.161-0.442-0.398-0.497c-0.278-0.062-0.549,0.114-0.61,0.386c-0.185,0.837-0.336,1.676-0.5,2.513l-1.046-0.289
	c-0.271-0.077-0.553,0.083-0.631,0.355c-0.073,0.271,0.084,0.552,0.355,0.631l1.12,0.309c-0.263,1.422-0.495,2.849-0.697,4.275
	c-0.251-0.004-0.5,0.015-0.752-0.013c-0.278-0.031-0.53,0.173-0.561,0.454c-0.04,0.289,0.174,0.53,0.456,0.561
	c0.234,0.024,0.467,0.004,0.701,0.013c-0.167,1.28-0.3,2.56-0.418,3.842l-0.405-0.011c-0.283-0.009-0.516,0.215-0.524,0.495
	c0,0.007,0,0.011,0,0.016c0,0.276,0.218,0.501,0.495,0.51l0.339,0.007c-0.119,1.442-0.209,2.886-0.268,4.33l-0.862,0.004
	c-0.281,0-0.508,0.228-0.508,0.508c0,0,0,0,0,0.002c0,0.283,0.228,0.509,0.513,0.509l0.839-0.004
	c-0.048,1.707-0.05,3.416-0.013,5.125c-0.439,0.02-0.877,0.037-1.315-0.026c-0.278-0.04-0.538,0.153-0.574,0.434
	c-0.056,0.274,0.152,0.539,0.432,0.574c0.493,0.072,0.989,0.081,1.485,0.059c0.046,1.451,0.124,2.899,0.232,4.348l-1.221,0.013
	c-0.278,0.004-0.504,0.23-0.504,0.508c0,0.002,0,0.004,0,0.007c0.004,0.283,0.233,0.506,0.517,0.504l1.279-0.011
	c0.149,1.755,0.33,3.513,0.573,5.268c0.039,0.281,0.298,0.473,0.575,0.436C44.506,63.2,44.696,62.963,44.666,62.666z"/>
</svg>
