<?xml version="1.0" encoding="utf-8"?>
<!-- Generator: Adobe Illustrator 16.0.0, SVG Export Plug-In . SVG Version: 6.00 Build 0)  -->
<!DOCTYPE svg PUBLIC "-//W3C//DTD SVG 1.1//EN" "http://www.w3.org/Graphics/SVG/1.1/DTD/svg11.dtd">
<svg version="1.1" id="Capa_1" xmlns="http://www.w3.org/2000/svg" xmlns:xlink="http://www.w3.org/1999/xlink" x="0px" y="0px"
	 width="150px" height="150px" viewBox="0 0 150 150" enable-background="new 0 0 150 150" xml:space="preserve">
<g>
	<path d="M26.26,56.36c1.522,0.007,6.135,0.013,10.748,0.013c4.616,0,9.233-0.005,10.758-0.013c5.829-0.047,7.554-1.967,7.752-7.116
		c0.808-17.017,3.078-18.653-18.329-18.684c-18.338,0.025-19.435,2.075-19.16,8.646l0.476,10.033
		C18.704,54.396,20.429,56.313,26.26,56.36z M24.246,54.418l0.521-0.521l0.44,0.44c0.089,0.089,0.206,0.133,0.322,0.133
		c0.116,0,0.232-0.044,0.322-0.133c0.178-0.178,0.178-0.465,0-0.644l-0.44-0.44l1.162-1.162l1.491,1.489l-0.965,0.965
		c-0.325,0-0.613-0.002-0.825-0.003C25.583,54.536,24.902,54.497,24.246,54.418z M29.003,54.334c0.117,0,0.233-0.043,0.322-0.133
		c0.169-0.169,0.165-0.433,0.013-0.611l1.882-1.882l1.875,1.873l-0.335,0.334c-0.176,0.176-0.176,0.46-0.001,0.638
		c-1.671-0.002-3.182-0.004-4.378-0.005l0.334-0.335C28.8,54.287,28.9,54.334,29.003,54.334z M39.104,49.418l1.266,1.266
		l-2.256,2.256l-1.545-1.545l2.478-2.478C38.967,49.083,38.965,49.28,39.104,49.418z M37.469,53.582l-0.553,0.553
		c-0.117,0.116-0.127,0.272-0.093,0.42c-1.16,0-2.313,0-3.417,0l2.518-2.519L37.469,53.582z M47.753,54.542
		c-1.438,0.009-5.629,0.013-9.973,0.014l0.36-0.36c0.184,0.107,0.356,0.144,0.542-0.042c0.149-0.149,0.146-0.367,0.042-0.542
		l2.286-2.286l1.491,1.491l-0.773,0.772c-0.178,0.178-0.178,0.465,0,0.644c0.178,0.178,0.466,0.178,0.644,0l0.772-0.772l0.293,0.292
		c0.178,0.178,0.465,0.178,0.642,0c0.178-0.178,0.178-0.465,0-0.644l-0.292-0.292l2.147-2.147l1.764,1.764l-1.045,1.045
		c-0.178,0.178-0.178,0.465,0,0.644s0.465,0.178,0.644,0l1.045-1.045l1.353,1.353C49.062,54.5,48.411,54.536,47.753,54.542z
		 M46.576,50.027l1.873-1.873l1.764,1.764l-1.873,1.873L46.576,50.027z M54.173,37.276l-0.704-0.706l0.54-0.54
		C54.093,36.425,54.151,36.838,54.173,37.276z M20.762,34.353c0.858-0.975,7.158-1.975,16.24-1.975c0.06,0,0.122,0,0.184,0
		c8.982,0.013,15.218,1.015,16.062,1.979c0.188,0.211,0.309,0.465,0.433,0.718l-0.854,0.854l-1.046-1.045
		c-0.178-0.178-0.465-0.178-0.644,0s-0.178,0.465,0,0.644l1.045,1.045l-0.28,0.28c-0.178,0.178-0.178,0.466,0,0.644
		c0.351,0.351,0.613,0.029,0.924-0.28l1.08,1.082c0.08,0.078,0.184,0.109,0.286,0.118c-0.005,0.236-0.003,0.467-0.015,0.709
		l-0.216,4.56c-0.131-0.013-0.264,0.015-0.364,0.114l-1.647,1.647l-1.484-1.482c-0.178-0.178-0.465-0.178-0.644,0
		s-0.178,0.465,0,0.642l1.484,1.483l-0.499,0.498c-0.178,0.178-0.178,0.466,0,0.642c0.178,0.178,0.466,0.178,0.642,0l0.498-0.498
		l0.997,0.996c0.178,0.178,0.465,0.178,0.644,0c0.462-0.462-0.502-1.144-0.997-1.638l1.318-1.318
		c-0.278,5.881,0.198,8.605-3.127,9.461l-1.8-1.8l1.873-1.873l0.942,0.941c0.422,0.422,1.069-0.216,0.644-0.644l-0.942-0.942
		l1.378-1.378c0.422-0.422-0.216-1.069-0.644-0.644l-1.378,1.378l-1.764-1.764l0.467-0.467c0.178-0.178,0.178-0.465,0-0.644
		s-0.465-0.178-0.642,0l-0.467,0.467l-0.171-0.171c-0.178-0.178-0.466-0.178-0.644,0c-0.178,0.178-0.178,0.465,0,0.644l0.171,0.171
		l-1.873,1.873l-1.154-1.155c-0.178-0.178-0.466-0.178-0.644,0c-0.178,0.178-0.178,0.465,0,0.644l1.154,1.155l-2.147,2.147
		l-1.491-1.491l3.611-3.613c0.178-0.178,0.178-0.465,0-0.644s-0.465-0.178-0.644,0l-3.611,3.613l-1.266-1.266
		c-0.138-0.138-0.334-0.136-0.501-0.058l0.087-0.087c0.178-0.178,0.178-0.465,0-0.644s-0.465-0.178-0.644,0l-2.766,2.766
		l-1.209-1.209c-0.178-0.178-0.465-0.178-0.644,0s-0.178,0.465,0,0.642l1.211,1.209l-1.543,1.545l-1.873-1.873l2.002-2.002
		c0.178-0.178,0.178-0.465,0-0.644s-0.465-0.178-0.644,0l-2.002,2.002l-0.664-0.664c-0.178-0.178-0.465-0.178-0.642,0
		c-0.178,0.178-0.178,0.465,0,0.642l0.664,0.664l-1.873,1.873l-1.491-1.489l1.36-1.36c0.178-0.178,0.178-0.465,0-0.644
		s-0.465-0.178-0.644,0l-1.36,1.36l-0.166-0.167c-0.178-0.178-0.465-0.178-0.642,0c-0.178,0.178-0.178,0.465,0,0.644l0.171,0.171
		l-1.162,1.162l-1.322-1.322c-0.178-0.178-0.465-0.178-0.644,0s-0.178,0.465,0,0.644l1.32,1.32l-0.956,0.957
		c-2.268-0.616-2.731-2.047-2.848-5.051l-0.476-10.035C19.767,37.244,19.776,35.462,20.762,34.353z"/>
	<path d="M104.203,126.99c0.151,4.932,1.383,7.082,6.275,7.133c2.389,0.016,14.469,0.016,16.859,0
		c4.898-0.051,6.122-2.221,6.27-7.125l0.373-10.04c0-0.001,0-0.001,0-0.003c0.19-5.723,0.18-8.613-14.973-8.631
		c-0.029,0-0.061,0-0.09,0C101.045,108.322,103.607,110.964,104.203,126.99z M108.574,132.127l0.662-0.662l0.709,0.71
		c0.082,0.081,0.188,0.114,0.293,0.122C109.654,132.283,109.089,132.246,108.574,132.127z M110.291,132.297
		c0.107-0.006,0.217-0.043,0.298-0.124c0.179-0.179,0.179-0.466,0-0.644l-0.709-0.709l0.829-0.83l1.564,1.566l-0.599,0.598
		c-0.042,0.042-0.042,0.102-0.063,0.152c-0.468-0.001-0.86-0.001-1.122-0.003C110.424,132.304,110.359,132.299,110.291,132.297z
		 M112.642,128.063l1.565,1.564l-1.289,1.289l-1.565-1.564L112.642,128.063z M115.492,129.625l2.117-2.115l1.289,1.289l-2.117,2.115
		L115.492,129.625z M116.194,131.615c-0.049,0.156-0.044,0.324,0.08,0.448c0.089,0.089,0.206,0.133,0.321,0.133
		c0.046,0,0.084-0.038,0.128-0.053l0.063,0.063c0.071,0.073,0.168,0.095,0.26,0.107c-1.564,0-3.051-0.002-4.241-0.004l0.167-0.167
		c0.154,0.051,0.264,0.107,0.451-0.08c0.123-0.126,0.129-0.294,0.08-0.45l1.346-1.346L116.194,131.615z M117.171,132.314
		c0.093-0.013,0.188-0.036,0.261-0.107c0.178-0.178,0.178-0.465,0-0.644l-0.008-0.007l2.116-2.117l0.874,0.875l-0.736,0.736
		c-0.178,0.178-0.178,0.466,0,0.644c0.179,0.179,0.466,0.179,0.645,0l0.736-0.737l0.727,0.727c0.179,0.178,0.466,0.178,0.645,0
		c0.178-0.178,0.178-0.465,0-0.642l-0.729-0.728l2.117-2.116l2.116,2.116l-1.289,1.289c-0.179,0.178-0.179,0.466,0,0.644
		c0.044,0.044,0.104,0.044,0.158,0.065C122.722,132.314,119.844,132.316,117.171,132.314z M120.184,128.799l2.116-2.117l0.874,0.875
		l-2.115,2.116L120.184,128.799z M126.438,125.578l2.117,2.116l-1.979,1.979l-2.116-2.116L126.438,125.578z M127.322,132.306
		c-0.44,0.001-1.213,0.005-2.191,0.007c0.053-0.021,0.113-0.021,0.156-0.065l1.287-1.289l1.324,1.323
		C127.709,132.291,127.52,132.304,127.322,132.306z M131.909,123.689c-0.004-0.113-0.042-0.225-0.128-0.31l-0.836-0.837l0.979-0.978
		c0.047-0.049,0.051-0.114,0.072-0.175L131.909,123.689z M132.07,119.346l-0.712-0.713l0.767-0.768L132.07,119.346z
		 M106.382,112.031c0.544-0.789,4.782-1.891,12.509-1.891c0.039,0,0.076,0,0.113,0c7.672,0.01,11.876,1.108,12.412,1.893
		c0.753,1.082,0.797,2.818,0.752,4.547c-0.022,0.015-0.05,0.009-0.07,0.029l-1.381,1.381l-0.92-0.92
		c-0.179-0.178-0.466-0.178-0.645,0c-0.178,0.179-0.178,0.466,0,0.645l0.92,0.92l-0.459,0.46c-0.179,0.178-0.179,0.466,0,0.644
		c0.178,0.178,0.465,0.178,0.643,0l0.461-0.46l0.781,0.782c0.186,0.186,0.361,0.15,0.545,0.039l-0.037,1.023
		c-0.022-0.068-0.027-0.143-0.082-0.197c-0.178-0.179-0.466-0.179-0.645,0l-0.978,0.979l-1.61-1.611
		c-0.179-0.178-0.466-0.178-0.645,0c-0.178,0.178-0.178,0.465,0,0.644l1.611,1.61l-1.701,1.702c-0.179,0.179-0.179,0.466,0,0.644
		c0.178,0.178,0.465,0.178,0.643,0l1.702-1.701l0.837,0.836c0.178,0.178,0.465,0.178,0.643,0c0.086-0.086,0.124-0.196,0.128-0.306
		l-0.12,3.22c-0.096,3.225-0.515,4.795-2.729,5.219l-1.84-1.84l1.978-1.979l1.435,1.435c0.178,0.179,0.465,0.179,0.644,0
		s0.179-0.466,0-0.644l-1.435-1.435l1.703-1.704c0.422-0.424-0.216-1.068-0.643-0.643l-1.704,1.703l-2.116-2.117l0.543-0.543
		c0.179-0.178,0.179-0.465,0-0.644c-0.178-0.179-0.465-0.179-0.642,0l-0.562,0.563c-0.178-0.127-0.418-0.133-0.578,0.027
		s-0.154,0.4-0.027,0.578l-1.998,1.992l-0.875-0.874l1.28-1.28c0.179-0.178,0.179-0.465,0-0.643c-0.179-0.179-0.466-0.179-0.644,0
		l-1.28,1.279l-0.415-0.414c-0.178-0.179-0.465-0.179-0.643,0c-0.179,0.178-0.179,0.465,0,0.643l0.414,0.415l-2.116,2.118
		l-1.289-1.289l1.051-1.051c0.179-0.178,0.179-0.465,0-0.644s-0.466-0.179-0.642,0l-1.053,1.051l-0.045-0.048
		c-0.179-0.178-0.467-0.178-0.645,0c-0.178,0.179-0.178,0.466,0,0.645l0.046,0.047l-2.116,2.116l-1.566-1.565l0.131-0.131
		c0.179-0.178,0.179-0.465,0-0.644c-0.178-0.179-0.465-0.179-0.643,0l-2.064,2.063l-0.138-0.138c-0.179-0.179-0.466-0.179-0.644,0
		c-0.178,0.178-0.178,0.466,0,0.644l0.139,0.139l-0.83,0.828l-0.69-0.69c-0.424-0.422-1.069,0.216-0.644,0.642l0.69,0.691
		l-0.952,0.952c-1.495-0.872-1.571-3.1-1.624-4.844C105.674,117.642,105.116,113.85,106.382,112.031z"/>
	<path d="M95.318,74.834c0.178,0.178,0.465,0.178,0.642,0l0.216-0.216c6.145,2.661,9.653,0.347,13.235-4.417
		c8.813-11.704,14.211-26.211,15.202-40.853c0.207-3.02,0.15-7.322-2.729-9.811c-3.563-3.051-8.363-1.654-12.543,0.36
		c-3.822,1.814-20.814,14.916-26.46,17.505c-7.045,3.216-13.662,13.518-3.083,24.998c-0.073,0.105-2.973,3.927-4.69,6.391
		c-0.769,0.154-1.525,0.391-2.272,0.678c0.094-1.443,0.189-2.887,0.294-4.329c0-0.003,0-0.007,0-0.013
		c0.098-1.649,0.262-4.413-2.062-6.178c-4.27-3.32-46.688-3.32-50.991-0.001c-2.296,1.76-2.14,4.422-2.035,6.192
		c0.236,3.348,0.475,6.693,0.697,10.029c0.36,6.266,4.431,7.069,11.007,7.105c2.238,0.007,8.995,0.013,15.77,0.013
		c5.431,0,10.865-0.004,13.996-0.01l-0.646,0.828c-6.898,0.718-9.956,1.254-9.562,7.949l0.262,3.969
		c-0.555,0.721-1.091,1.411-1.615,2.086c0.071-2.027,0.14-4.055,0.216-6.08c0,0,0-0.002,0-0.004
		c0.073-2.139,0.049-4.359-1.063-5.955c-1.694-2.463-11.051-2.672-13.878-2.678c-15.456,0.029-15.4,2.827-15.202,8.637
		c0.127,3.346,0.254,6.69,0.366,10.039c0.073,1.922,0.22,3.761,1.2,5.156c1.384,1.932,3.695,1.953,5.078,1.968
		c1.887,0.011,9.602,0.019,15.015,0.006c-0.08,0.142-0.147,0.282-0.22,0.422C33,107.996,20.985,108.251,19.075,111
		c-1.195,1.715-1.111,4.169-1.051,5.962c0.127,3.347,0.255,6.692,0.366,10.042c0.186,4.901,1.338,7.07,6.278,7.121
		c1.189,0.008,4.805,0.014,8.423,0.014c2.029,0,4.044-0.002,5.647-0.004c0.074,0.049,0.151,0.098,0.238,0.098
		c0.087,0,0.164-0.049,0.24-0.1c1.037-0.002,1.854-0.004,2.313-0.008c4.945-0.051,6.089-2.236,6.274-7.125l0.018-0.533
		c0.065-1.874,0.133-3.754,0.208-5.627c0.782-0.133,1.089-0.23,1.5-0.371l0.44,6.551c0.485,8.444,6.122,7.119,25.651,7.119
		c6.489,0,12.978-0.006,15.12-0.014c3.082-0.018,6.264-0.17,8.325-1.777c1.833-1.428,2.095-3.415,2.204-5.32l0.665-10.04
		c0-0.002,0-0.005,0-0.007c0.104-1.752,0.26-4.398-1.966-6.168c-3.127-2.551-24.831-2.873-36.925-2.119
		c0.144-0.166,0.298-0.334,0.438-0.5c3.633,0.007,9.371,0.01,14.725,0.01c5.555,0,10.675-0.005,12.531-0.012
		c6.479-0.039,10.176-0.957,10.531-7.099l0.665-10.038c0-0.002,0-0.006,0-0.008c0.104-1.752,0.26-4.399-1.971-6.172
		c-2.006-1.615-10.926-2.17-17.052-2.36c1.117-1.718,2.361-3.522,2.756-5.531c1.743-1.487,3.328-3.389,4.717-5.685
		c1.079,0.716,2.113,1.373,3.109,1.949c0.568,0.328,1.177,0.658,1.813,0.969C95.15,74.396,95.148,74.666,95.318,74.834z
		 M97.576,73.22l0.52-0.522l0.096,0.095c0.178,0.178,0.465,0.178,0.643,0c0.179-0.178,0.179-0.466,0-0.644l-0.094-0.094l1.614-1.617
		l1.417,1.417l-0.342,0.342c-0.179,0.178-0.179,0.465,0,0.644c0.178,0.178,0.465,0.178,0.643,0l0.4-0.4
		c0.152,0.047,0.26,0.105,0.447-0.082c0.123-0.124,0.129-0.291,0.082-0.447l1.605-1.605l0.941,0.941
		c0.17,0.169,0.445,0.186,0.635,0.004C103.618,73.96,101.171,74.582,97.576,73.22z M106.418,64.02l1.595,1.595l-3.407,3.409
		l-1.416-1.416l3.145-3.146C106.457,64.338,106.464,64.175,106.418,64.02z M103.962,69.666l-1.55,1.549l-1.416-1.416l1.549-1.549
		L103.962,69.666z M107.958,69.109c-0.556,0.742-1.14,1.471-1.764,2.131c0.169-0.178,0.171-0.458-0.003-0.633l-0.942-0.942
		l3.407-3.409l0.518,0.518c0.088,0.087,0.203,0.131,0.316,0.131C108.98,67.642,108.494,68.396,107.958,69.109z M119.779,45.415
		l-3.23-3.233c-0.031-0.031-0.074-0.025-0.109-0.045l1.913-1.911l0.704,0.704c0.178,0.178,0.465,0.178,0.644,0s0.179-0.465,0-0.642
		l-0.784-0.784c0.015-0.132-0.011-0.267-0.112-0.369c-0.103-0.102-0.236-0.129-0.369-0.115l-1.163-1.164l2.743-2.746l1.475,1.475
		c0.089,0.089,0.205,0.133,0.321,0.133c0.017,0,0.029-0.017,0.046-0.018c-0.511,2.967-1.171,5.913-2.036,8.803
		C119.8,45.477,119.806,45.438,119.779,45.415z M120.998,33.482c-0.178-0.178-0.465-0.178-0.642,0l-0.344,0.343l-1.349-1.349
		l1.813-1.815l1.477,1.477c0.188,0.187,0.354,0.147,0.534,0.045c-0.133,1.216-0.282,2.429-0.477,3.64l-1.356-1.356l0.344-0.344
		C121.176,33.947,121.176,33.66,120.998,33.482z M20.555,75.058c-0.224-3.349-0.46-6.698-0.698-10.035
		c-0.293-4.958-0.477-6.75,25.72-6.75c25.979,0,26.039,1.734,25.742,6.745c-0.129,1.766-0.246,3.529-0.362,5.296
		c-0.922,0.498-2.053,1.26-3.173,2.222l-0.918-0.918l2.125-2.125l0.553,0.553c0.178,0.178,0.466,0.178,0.644,0
		c0.178-0.178,0.178-0.465,0-0.644l-2.411-2.411l2.093-2.091c0.178-0.178,0.178-0.465,0-0.644s-0.465-0.178-0.644,0l-2.091,2.091
		l-0.009-0.009c-0.178-0.178-0.465-0.178-0.644,0s-0.178,0.465,0,0.644l0.131,0.131c0.009,0.102,0.038,0.204,0.116,0.28
		c0.078,0.078,0.18,0.107,0.28,0.117l1.34,1.34l-2.125,2.124l-1-1c-0.178-0.178-0.465-0.178-0.644,0s-0.178,0.465,0,0.644l1,1
		l-0.422,0.422c-0.178,0.178-0.178,0.465,0,0.644s0.465,0.178,0.644,0l0.422-0.422l0.873,0.873
		c-0.923,0.865-1.383,1.402-2.085,2.247l-1.654-1.656l0.893-0.893c0.178-0.178,0.178-0.466,0-0.644
		c-0.178-0.178-0.465-0.178-0.644,0l-0.893,0.895l-1.124-1.124c-0.178-0.178-0.465-0.178-0.644,0s-0.178,0.466,0,0.644l1.124,1.124
		l-2.29,2.289l-1.629-1.629l2.625-2.625c0.178-0.178,0.178-0.465,0-0.644s-0.465-0.178-0.644,0l-2.625,2.625l-0.216-0.216
		c-0.178-0.178-0.465-0.178-0.644,0s-0.178,0.465,0,0.642l0.216,0.216L55.4,75.847l-1.002-1.001
		c-0.116-0.117-0.272-0.127-0.421-0.091l1.909-1.909c0.178-0.178,0.178-0.466,0-0.644s-0.465-0.178-0.642,0l-4.758,4.76l-1.62-1.62
		c-0.053-0.053-0.122-0.056-0.189-0.078l1.977-1.977c0.178-0.178,0.178-0.465,0-0.642c-0.178-0.178-0.465-0.178-0.644,0l-3.74,3.739
		l-0.545-0.545c-0.178-0.178-0.465-0.178-0.642,0c-0.178,0.178-0.178,0.466,0,0.644l0.545,0.546l-1.464,1.463l-1.96-1.959
		l2.469-2.47c0.178-0.178,0.178-0.465,0-0.644s-0.466-0.178-0.644,0l-4.577,4.576l-0.845-0.846l0.842-0.842
		c0.178-0.178,0.178-0.465,0-0.643s-0.466-0.178-0.644,0l-0.842,0.842l-0.009-0.01c-0.178-0.178-0.465-0.178-0.644,0
		s-0.178,0.466,0,0.644l0.009,0.009l-1.834,1.835l-1.656-1.658c-0.067-0.067-0.158-0.085-0.246-0.102l0.513-0.513
		c0.178-0.178,0.178-0.466,0-0.644c-0.178-0.178-0.465-0.178-0.644,0l-3.125,3.127l-1.093-1.091l1.927-1.93
		c0.178-0.178,0.178-0.465,0-0.641c-0.178-0.178-0.465-0.178-0.642,0l-2.151,2.151c-0.047,0.021-0.102,0.02-0.14,0.059
		c-0.038,0.037-0.036,0.092-0.058,0.14l-0.983,0.983l-1.042-1.043c-0.178-0.179-0.465-0.179-0.644,0
		c-0.178,0.178-0.178,0.465,0,0.643l1.043,1.041l-0.751,0.75C21.349,79.701,20.716,77.9,20.555,75.058z M62.389,78.625l-1.967-1.965
		l2.289-2.289l1.718,1.718C63.724,76.951,63.043,77.802,62.389,78.625z M60.935,80.46c-2.051,0.005-6.375,0.009-11.194,0.011
		c0.162-0.178,0.164-0.451-0.007-0.623l-0.422-0.422l1.174-1.175l2.077,2.076c0.089,0.089,0.205,0.133,0.322,0.133
		c0.116,0,0.232-0.046,0.322-0.133c0.178-0.179,0.178-0.466,0-0.644l-0.176-0.176l2.373-2.373l1.629,1.629l-0.711,0.711
		c-0.178,0.178-0.178,0.465,0,0.644s0.466,0.179,0.644,0l0.71-0.711l0.409,0.409c0.178,0.178,0.466,0.178,0.644,0
		c0.178-0.178,0.178-0.465,0-0.644l-0.409-0.409l1.463-1.464l2.04,2.04C61.82,79.342,61.425,79.838,60.935,80.46z M48.146,75.8
		c0.022,0.065,0.025,0.137,0.078,0.189l1.62,1.62l-1.175,1.174l-1.754-1.752L48.146,75.8z M53.756,75.493l1,1.001l-2.373,2.373
		l-1.258-1.258l2.538-2.539C53.629,75.218,53.64,75.375,53.756,75.493z M56.043,76.492l1.464-1.463l1.629,1.629l-1.463,1.464
		L56.043,76.492z M42.627,80.471c-2.177,0-4.262-0.002-6.14-0.002c0.095-0.172,0.1-0.383-0.047-0.531l-0.307-0.307l1.834-1.834
		l0.845,0.845l-1,1c-0.178,0.179-0.178,0.466,0,0.644c0.178,0.179,0.466,0.179,0.644,0l1-1l0.891,0.891
		c0.178,0.179,0.465,0.179,0.642,0c0.178-0.178,0.178-0.465,0-0.643l-0.891-0.892l1.464-1.464l1.96,1.961l-0.834,0.834
		C42.549,80.109,42.551,80.304,42.627,80.471z M31.226,80.462c0.049-0.156,0.043-0.325-0.08-0.449l-0.175-0.175l2.115-2.112
		c0.017,0.087,0.035,0.179,0.102,0.245l1.662,1.662l-0.834,0.834C32.929,80.465,32.002,80.464,31.226,80.462z M28.669,80.348
		l-0.838-0.838l0.762-0.763l1.093,1.091l-0.382,0.381c-0.063,0.063-0.078,0.15-0.097,0.232c-0.165-0.002-0.331-0.002-0.496-0.006
		C28.691,80.414,28.696,80.375,28.669,80.348z M27.438,80.402c-0.158-0.008-0.314-0.021-0.471-0.031l0.22-0.221L27.438,80.402z
		 M35.491,80.274l0.193,0.192c-0.136,0-0.253,0-0.385,0L35.491,80.274z M43.475,80.471l0.691-0.691l0.531,0.531
		c0.089,0.09,0.206,0.133,0.322,0.133c0.117,0,0.233-0.043,0.322-0.133c0.178-0.178,0.178-0.465,0-0.643l-0.531-0.531l1.464-1.464
		l2.798,2.798C47.229,80.471,45.338,80.471,43.475,80.471z M57.291,85.118c-1.656,2.116-4.597,5.892-6.044,7.749
		C50.831,86.605,50.931,85.949,57.291,85.118z M42.358,104.344l-2.236-2.236l1.92-1.92l0.571,0.57l-1.136,1.137
		c-0.178,0.178-0.178,0.465,0,0.644c0.178,0.179,0.465,0.179,0.644,0l1.136-1.136l0.64,0.64c0.049,0.051,0.118,0.053,0.18,0.074
		c-0.085,0.111-0.185,0.24-0.267,0.348C42.96,103.563,43.138,103.329,42.358,104.344z M45.096,99.561
		c0.171,0.081,0.315,0.138,0.509-0.057c0.178-0.178,0.178-0.466,0-0.645l-1.307-1.307l1.345-1.346c0.035,0.008,0.06,0.04,0.095,0.04
		c0.116,0,0.232-0.044,0.322-0.132c0.08-0.08,0.111-0.185,0.118-0.288c-0.045,1.247-0.093,2.493-0.135,3.74
		c-0.533,0.686-1.016,1.313-1.474,1.905c-0.017-0.023-0.011-0.057-0.033-0.076l-0.64-0.641L45.096,99.561z M46.18,95.766
		c-0.002-0.023-0.022-0.042-0.027-0.065l0.031-0.031C46.182,95.7,46.182,95.732,46.18,95.766z M46.22,94.644
		c-0.142-0.027-0.29-0.009-0.398,0.103l-0.246,0.244l-0.594-0.594c0.094-0.013,0.192-0.037,0.265-0.109l1.024-1.023
		C46.253,93.722,46.238,94.184,46.22,94.644z M22.469,106.113l0.216-0.217l0.345,0.346
		C22.838,106.209,22.649,106.169,22.469,106.113z M23.807,106.342c0.158-0.178,0.162-0.449-0.009-0.62l-0.469-0.468l3.049-3.047
		c0.178-0.178,0.178-0.465,0-0.644c-0.178-0.179-0.466-0.179-0.642,0l-3.049,3.048l-0.531-0.531c-0.178-0.178-0.465-0.178-0.642,0
		c-0.178,0.178-0.178,0.465,0,0.644l0.531,0.53l-0.367,0.364c-0.025,0.025-0.02,0.062-0.038,0.089
		c-0.208-0.146-0.407-0.307-0.569-0.532c-0.689-0.983-0.804-2.536-0.865-4.171c-0.111-3.35-0.238-6.698-0.366-10.039
		c-0.051-1.537-0.122-3.641,0.728-4.861c0.633-0.914,5.594-1.893,12.523-1.893c0.044,0,0.087,0,0.131,0
		c7.656,0.013,11.851,1.113,12.387,1.895c0.796,1.142,0.802,3.025,0.742,4.856c-0.013,0.321-0.022,0.644-0.035,0.966l-1.713,1.713
		c-0.073,0.072-0.096,0.168-0.111,0.265l-0.158-0.158c-0.178-0.178-0.465-0.178-0.642,0c-0.178,0.179-0.178,0.466,0,0.644l1.24,1.24
		L43.2,97.363c-0.178,0.179-0.178,0.466,0,0.645c0.089,0.088,0.205,0.133,0.322,0.133c0.02,0,0.034-0.021,0.053-0.022l0.838,0.839
		l-1.158,1.158l-2.04-2.041c-0.178-0.178-0.465-0.178-0.644,0c-0.178,0.179-0.178,0.466,0,0.645l0.828,0.824l-1.92,1.921
		l-1.001-1.002l0.129-0.13c0.178-0.178,0.178-0.465,0-0.643c-0.178-0.179-0.465-0.179-0.644,0l-2.651,2.652l-0.664-0.664
		c-0.178-0.178-0.466-0.178-0.642,0c-0.178,0.179-0.178,0.466,0,0.645l0.664,0.663l-2.48,2.479l-1.029-1.03l3.204-3.202
		c0.178-0.178,0.178-0.465,0-0.644c-0.178-0.178-0.465-0.178-0.644,0l-3.202,3.202l-0.272-0.273c-0.178-0.178-0.466-0.178-0.644,0
		c-0.178,0.179-0.178,0.466,0,0.645l0.272,0.272l-1.291,1.291c-0.178,0.179-0.178,0.466,0,0.644
		c0.013,0.013,0.033,0.008,0.045,0.018c-0.88-0.002-1.664-0.002-2.331-0.003l0.598-0.599l0.422,0.422
		c0.089,0.09,0.205,0.133,0.322,0.133c0.116,0,0.232-0.043,0.322-0.133c0.178-0.178,0.178-0.465,0-0.644l-0.422-0.422l2.136-2.136
		c0.178-0.179,0.178-0.466,0-0.645c-0.178-0.178-0.465-0.178-0.642,0l-2.136,2.137l-0.818-0.818c-0.178-0.178-0.465-0.178-0.642,0
		c-0.178,0.179-0.178,0.466,0,0.645l0.818,0.817l-1.124,1.124c-0.031,0.031-0.027,0.076-0.047,0.114c-0.147,0-0.291-0.002-0.4-0.002
		C24.385,106.373,24.095,106.359,23.807,106.342z M37.834,101.105l1.002,1.002l-1.88,1.88l-1.002-1.002L37.834,101.105z
		 M31.827,106.389c-0.916,0-1.809,0-2.647-0.002c0.014-0.01,0.034-0.007,0.047-0.02l1.291-1.289L31.827,106.389z M32.551,106.389
		c0.02-0.027,0.024-0.06,0.038-0.09c0.029-0.02,0.065-0.014,0.091-0.039l2.632-2.635l1.002,1.002l-0.611,0.611
		c-0.178,0.178-0.178,0.465,0,0.644s0.465,0.179,0.642,0l0.611-0.61l0.709,0.709c0.178,0.178,0.465,0.178,0.644,0
		c0.178-0.179,0.178-0.466,0-0.645l-0.709-0.709l1.88-1.88c0.193,0.192,2.147,2.157,2.336,2.318c-0.329,0.435-0.666,0.865-0.98,1.31
		C39.162,106.385,35.806,106.389,32.551,106.389z M23.64,132.24c0.021,0.021,0.053,0.016,0.076,0.031
		c-0.418-0.029-0.814-0.094-1.184-0.199l0.471-0.469L23.64,132.24z M24.164,132.289c0.038-0.02,0.085-0.016,0.118-0.049
		c0.178-0.178,0.178-0.466,0-0.645l-0.636-0.636l1.013-1.013l1.611,1.611l-0.505,0.505c-0.069,0.069-0.089,0.16-0.104,0.251
		c-0.398-0.002-0.746-0.004-0.977-0.006C24.507,132.307,24.338,132.295,24.164,132.289z M29.284,132.322
		c-0.917,0-1.76-0.002-2.487-0.004l0.284-0.283c0.076-0.021,0.158-0.031,0.218-0.092c0.06-0.06,0.071-0.142,0.091-0.218l1.917-1.917
		l1.198,1.197l-1.151,1.148C29.306,132.201,29.306,132.266,29.284,132.322z M30.471,132.322l0.675-0.675l0.376,0.376
		c0.089,0.09,0.205,0.133,0.322,0.133c0.116,0,0.232-0.043,0.322-0.133c0.178-0.178,0.178-0.465,0-0.644l-0.376-0.376l1.887-1.888
		l0.875,0.874l-0.875,0.875c-0.178,0.178-0.178,0.466,0,0.645c0.089,0.088,0.206,0.132,0.322,0.132c0.117,0,0.233-0.044,0.322-0.132
		l0.875-0.875l1.684,1.684C34.88,132.324,32.569,132.324,30.471,132.322z M40.711,125.118l1.842,1.842l-1.933,1.933l-1.842-1.842
		L40.711,125.118z M39.977,129.535l-2.302,2.299l-1.84-1.842l2.3-2.299L39.977,129.535z M46.005,126.407l-0.018,0.527
		c-0.063,1.638-0.176,3.19-0.862,4.169c-0.78,1.088-2.156,1.191-3.613,1.205c-0.558,0.006-1.66,0.008-3.036,0.012l2.142-2.143
		l1.334,1.335c0.089,0.089,0.206,0.133,0.322,0.133c0.117,0,0.233-0.044,0.322-0.133c0.178-0.179,0.178-0.466,0-0.644l-1.334-1.334
		l1.933-1.934l1.244,1.244c0.089,0.089,0.206,0.133,0.322,0.133c0.117,0,0.233-0.044,0.322-0.133c0.178-0.178,0.178-0.466,0-0.643
		l-1.244-1.243l0.738-0.738c0.178-0.179,0.178-0.466,0-0.644s-0.465-0.178-0.644,0l-0.738,0.738l-1.901-1.902
		c0.043-0.152,0.036-0.316-0.086-0.438c-0.178-0.178-0.465-0.178-0.644,0l-2.431,2.431l-0.138-0.138
		c-0.178-0.179-0.465-0.179-0.644,0c-0.178,0.178-0.178,0.465,0,0.642l0.138,0.138l-2.3,2.301l-0.875-0.875l2.417-2.416
		c0.178-0.179,0.178-0.466,0-0.645c-0.178-0.178-0.465-0.178-0.644,0l-2.417,2.417l-0.827-0.829c-0.178-0.178-0.466-0.178-0.644,0
		c-0.178,0.178-0.178,0.465,0,0.644l0.829,0.829l-1.884,1.889l-1.198-1.195l1.673-1.674c0.178-0.178,0.178-0.465,0-0.643
		c-0.178-0.179-0.466-0.179-0.642,0l-1.672,1.672l-0.782-0.781c-0.178-0.179-0.465-0.179-0.642,0c-0.178,0.178-0.178,0.465,0,0.643
		l0.782,0.783l-1.749,1.748l-1.611-1.61l2.478-2.479c0.178-0.179,0.178-0.466,0-0.644s-0.465-0.178-0.642,0l-2.479,2.479
		l-0.276-0.277c-0.178-0.178-0.465-0.178-0.642,0c-0.178,0.179-0.178,0.467,0,0.645l0.276,0.276l-1.013,1.013l-1.011-1.013
		c-0.178-0.179-0.466-0.179-0.644,0c-0.178,0.178-0.178,0.466,0,0.644l1.011,1.013l-0.7,0.7c-0.216-0.151-0.422-0.318-0.589-0.549
		c-0.691-0.986-0.804-2.539-0.866-4.172c-0.111-3.349-0.238-6.697-0.365-10.039c-0.051-1.537-0.122-3.641,0.726-4.86
		c1.263-1.818,12.383-2.177,18.12-1.669c-1.798,5.182,0.84,9.885,6.308,10.557l-0.882,0.881c-0.495-0.492-1.151-1.426-1.609-0.967
		c-0.178,0.178-0.178,0.465,0,0.644l0.967,0.968l-1.518,1.518c-0.178,0.178-0.178,0.465,0,0.644
		c0.089,0.089,0.206,0.133,0.322,0.133s0.233-0.044,0.322-0.133l1.518-1.519l1.631,1.631c0.087,0.088,0.202,0.13,0.316,0.131
		C46.043,125.373,46.023,125.891,46.005,126.407z M46.1,123.795l-1.342-1.342l1.443-1.443
		C46.164,121.935,46.133,122.863,46.1,123.795z M92.359,127.279l1.75,1.75l-1.75,1.747c-0.07,0.073-0.094,0.167-0.106,0.26
		l-1.825-1.825L92.359,127.279z M89.783,128.569l-2.07-2.071l1.933-1.933l2.071,2.071L89.783,128.569z M95.633,123.931l1.785,1.786
		l-2.669,2.668L93,126.637l2.578-2.578C95.615,124.023,95.613,123.973,95.633,123.931z M99.457,126.918
		c-0.094,1.618-0.271,3.035-1.508,3.996c-1.111,0.866-2.808,1.188-4.658,1.313c-0.015-0.093-0.037-0.188-0.107-0.261l-0.439-0.439
		c0.092-0.013,0.188-0.037,0.26-0.107l6.025-6.025c0.178-0.178,0.178-0.465,0-0.644s-0.466-0.179-0.643,0l-0.323,0.323l-3.403-3.403
		l2.483-2.485l1.06,1.059l-1.241,1.243c-0.179,0.179-0.179,0.466,0,0.644c0.089,0.09,0.206,0.133,0.321,0.133
		c0.117,0,0.233-0.043,0.322-0.133l1.242-1.242l0.418,0.418c0.089,0.09,0.205,0.133,0.322,0.133c0.086,0,0.165-0.051,0.241-0.1
		L99.457,126.918z M99.762,113.438c0.309,0.683,0.402,1.47,0.398,2.328l-1.361-1.361L99.762,113.438z M99.873,120.631l-0.388-0.387
		l0.442-0.442L99.873,120.631z M98.831,112.232c0.163,0.131,0.308,0.271,0.435,0.416l-1.111,1.111l-0.275-0.276
		c-0.179-0.178-0.467-0.178-0.645,0c-0.178,0.179-0.178,0.466,0,0.644l0.276,0.277l-0.92,0.922c-0.179,0.178-0.179,0.465,0,0.643
		c0.089,0.09,0.206,0.133,0.321,0.133c0.117,0,0.233-0.043,0.322-0.133l0.92-0.922l1.751,1.75c0.06,0.06,0.14,0.07,0.216,0.088
		l-0.106,1.609c-0.036,0.021-0.08,0.016-0.11,0.046l-1.061,1.06l-1.059-1.06l1.262-1.262c0.179-0.179,0.179-0.466,0-0.644
		c-0.178-0.178-0.465-0.178-0.643,0l-1.263,1.262l-1.196-1.196c-0.178-0.179-0.465-0.179-0.644,0c-0.179,0.178-0.179,0.466,0,0.644
		l1.196,1.196l-2.483,2.485l-0.093-0.093c-0.178-0.179-0.465-0.179-0.644,0s-0.179,0.466,0,0.644l1.787,1.785
		c-0.042,0.022-0.093,0.019-0.129,0.053l-2.578,2.578l-2.071-2.07l0.691-0.691c0.178-0.178,0.178-0.465,0-0.643
		c-0.179-0.179-0.466-0.179-0.645,0l-0.69,0.69l-0.048-0.048c-0.178-0.178-0.465-0.178-0.641,0c-0.179,0.179-0.179,0.466,0,0.645
		l0.047,0.047l-1.933,1.933l-0.875-0.874c-0.178-0.179-0.466-0.179-0.642,0c-0.178,0.178-0.178,0.465,0,0.643l0.875,0.875
		l-2.67,2.67l-2.025-2.024l4.264-4.264c0.178-0.179,0.178-0.466,0-0.644s-0.465-0.178-0.642,0l-4.264,4.264l-1.335-1.334
		c-0.178-0.179-0.465-0.179-0.641,0c-0.179,0.178-0.179,0.465,0,0.643l1.334,1.335l-2.806,2.808l-1.704-1.704l3.787-3.787
		c0.179-0.179,0.179-0.466,0-0.644c-0.178-0.178-0.465-0.178-0.643,0l-3.788,3.787l-1.518-1.518c-0.178-0.179-0.466-0.179-0.644,0
		c-0.178,0.178-0.178,0.465,0,0.643l1.518,1.519l-2.991,2.991c0.127-0.178,0.133-0.418-0.027-0.578l-2.091-2.091l4.067-4.067
		c0.178-0.178,0.178-0.466,0-0.644c-0.178-0.179-0.465-0.179-0.642,0l-4.067,4.067l-1.378-1.381c-0.178-0.178-0.465-0.178-0.644,0
		c-0.178,0.179-0.178,0.466,0,0.645l1.38,1.38l-2.576,2.576c-0.178,0.179-0.178,0.466,0,0.644s0.465,0.178,0.644,0l2.577-2.576
		l2.091,2.091c0.153,0.153,0.356,0.186,0.578,0.027c-0.267,0.267-0.485,0.525-0.184,0.827c0.178,0.178,0.465,0.178,0.644,0
		l3.267-3.268l1.74,1.74c-0.085,0.171-0.089,0.373,0.053,0.515c0.196,0.196,0.344,0.138,0.515,0.053l0.24,0.239
		c0.178,0.179,0.465,0.179,0.643,0c0.179-0.178,0.179-0.465,0-0.643l-0.201-0.202l2.806-2.808l2.025,2.025l-0.505,0.506
		c-0.179,0.178-0.179,0.465,0,0.644c0.178,0.179,0.465,0.179,0.643,0l0.506-0.505l1.729,1.729c0.179,0.178,0.466,0.178,0.645,0
		c0.178-0.178,0.178-0.465,0-0.644l-1.729-1.729l2.669-2.669l2.071,2.071l-2.21,2.209c-0.178,0.178-0.178,0.465,0,0.642
		c0.179,0.179,0.467,0.179,0.645,0l2.209-2.209l2.426,2.425c-0.491,0.016-0.986,0.026-1.479,0.027
		c-33.142,0.151-33.369,0.021-35.189-0.406l0.71-0.713l0.113,0.112c0.178,0.179,0.466,0.179,0.644,0
		c0.178-0.178,0.178-0.466,0-0.644l-0.119-0.111l1.382-1.381l2.117,2.115l-0.138,0.139c-0.178,0.178-0.178,0.466,0,0.643
		c0.178,0.178,0.465,0.178,0.644,0l2.438-2.438l1.46,1.458c0.178,0.178,0.466,0.178,0.642,0c0.178-0.178,0.178-0.465,0-0.644
		l-1.46-1.454l3.206-3.206c0.178-0.179,0.178-0.466,0-0.642c-0.178-0.178-0.466-0.178-0.644,0l-3.205,3.205l-2.069-2.068
		c-0.018-0.019-0.045-0.014-0.067-0.027l0.986-0.986c0.178-0.178,0.178-0.465,0-0.643c-0.178-0.179-0.466-0.179-0.644,0
		l-3.264,3.263l-0.875-0.874c-0.178-0.179-0.465-0.179-0.644,0c-0.178,0.178-0.178,0.465,0,0.644l0.875,0.874l-1.382,1.383
		l-1.885-1.887c-0.178-0.178-0.465-0.178-0.644,0c-0.178,0.179-0.178,0.466,0,0.645l1.887,1.883l-1.051,1.051
		c-2.26-0.857-2.642-2.316-2.778-4.687l-0.484-7.188c3.584-1.813,6.697-5.405,10.033-9.085
		C75.673,109.506,96.561,110.377,98.831,112.232z M60.598,126.846c0.015,0.02,0.009,0.049,0.027,0.066l2.071,2.07l-1.656,1.656
		l-2.116-2.117L60.598,126.846z M66.68,104.438c-0.258,0.449,0.463,0.959,0.896,1.392l-0.553,0.553c-0.684,0-1.347-0.002-1.96-0.002
		C65.611,105.744,66.138,105.084,66.68,104.438z M73.876,104.732l1.656,1.656c-1.083,0-2.164,0-3.226-0.002
		c0.02-0.051,0.058-0.094,0.06-0.146L73.876,104.732z M70.987,106.336c-0.015,0.016-0.009,0.037-0.022,0.051
		c-0.614,0-1.216-0.002-1.807-0.002c0.017-0.132-0.011-0.267-0.113-0.37l-0.184-0.184l1.011-1.011l1.315,1.314L70.987,106.336z
		 M76.831,106.389l2.31-2.309l2.309,2.309C79.969,106.389,78.407,106.389,76.831,106.389z M88.365,100.859l1.707,1.708l-1.924,1.923
		l-1.707-1.707L88.365,100.859z M88.66,106.289c0.062,0.063,0.146,0.074,0.224,0.093c-1.542,0.003-3.669,0.005-6.075,0.005
		c0.016-0.01,0.035-0.007,0.048-0.02l2.942-2.941L88.66,106.289z M90.732,106.377c-0.403,0.001-0.971,0.003-1.652,0.005
		c0.078-0.019,0.162-0.03,0.224-0.093c0.179-0.178,0.179-0.465,0-0.642l-0.513-0.513l1.924-1.924l3.053,3.053
		C92.789,106.35,91.756,106.371,90.732,106.377z M97.469,100.129l-2.142,2.145l-1.838-1.839l2.142-2.142L97.469,100.129z
		 M94.684,102.914l-1.489,1.49l-1.838-1.839l1.489-1.489L94.684,102.914z M94.882,106.123c-0.013-0.016-0.007-0.037-0.022-0.053
		l-1.023-1.023l1.49-1.488l1.314,1.314c0.178,0.178,0.465,0.178,0.643,0c0.179-0.179,0.179-0.466,0-0.645l-1.314-1.314l2.179-2.178
		c0.171,0.088,0.321,0.144,0.519-0.053c0.143-0.144,0.138-0.348,0.051-0.518l0.849-0.85l-0.11,1.667
		C99.313,103.477,98.971,105.471,94.882,106.123z M99.867,94.802l-0.198-0.198l0.228-0.227L99.867,94.802z M100.115,91.049
		l-0.318-0.318l0.351-0.351c-0.007,0.184-0.015,0.369-0.027,0.558L100.115,91.049z M100.141,89.168
		c-0.055,0.023-0.111,0.047-0.155,0.09l-1.673,1.675c-0.178,0.179-0.178,0.466,0,0.644s0.466,0.178,0.645,0l0.199-0.199l0.88,0.879
		l-0.069,1.041c-0.136-0.021-0.275,0.002-0.381,0.107l-0.559,0.558L98,92.935c-0.178-0.179-0.465-0.179-0.644,0
		s-0.179,0.466,0,0.644l1.027,1.027l-1.202,1.201c-0.178,0.179-0.178,0.467,0,0.645s0.466,0.178,0.645,0l1.201-1.202l0.762,0.761
		l-0.158,2.383c-0.166-0.068-0.353-0.068-0.485,0.065l-1.03,1.031l-1.951-1.951c-0.008-0.105-0.041-0.213-0.122-0.294
		c-0.082-0.082-0.188-0.115-0.295-0.122l-0.271-0.271c-0.178-0.179-0.466-0.179-0.645,0c-0.178,0.178-0.178,0.465,0,0.643
		l0.157,0.156l-2.142,2.143l-0.854-0.855c-0.178-0.178-0.465-0.178-0.643,0c-0.179,0.179-0.179,0.467,0,0.645l0.852,0.853
		l-1.488,1.489l-1.707-1.707l1.721-1.721c0.179-0.178,0.179-0.465,0-0.644c-0.178-0.178-0.465-0.178-0.643,0l-2.043,2.042h-0.001
		v0.002l-2.245,2.245l-1.202-1.202c-0.179-0.178-0.466-0.178-0.642,0c-0.179,0.179-0.179,0.466,0,0.645l1.201,1.201l-2.941,2.942
		c-0.027,0.026-0.021,0.067-0.042,0.1l-2.39-2.39l4.371-4.37c0.179-0.179,0.179-0.466,0-0.644c-0.178-0.178-0.465-0.178-0.643,0
		l-4.371,4.371l-0.637-0.637c-0.178-0.178-0.466-0.178-0.644,0c-0.179,0.178-0.179,0.465,0,0.644l0.636,0.636l-2.313,2.315
		l-1.664-1.664l1.891-1.891c0.179-0.179,0.179-0.466,0-0.642c-0.179-0.179-0.465-0.179-0.644,0l-1.898,1.898
		c-0.178-0.158-0.447-0.16-0.618,0.01c-0.171,0.172-0.167,0.44-0.011,0.619l-1.409,1.408l-1.316-1.314l1.953-1.952
		c0.178-0.179,0.178-0.466,0-0.644s-0.465-0.178-0.642,0l-1.955,1.953l-0.156-0.157c-0.178-0.178-0.466-0.178-0.644,0
		c-0.178,0.179-0.178,0.466,0,0.644l0.156,0.156l-1.011,1.012l-0.853-0.854c-0.16-0.158-0.398-0.152-0.576-0.027
		c5.465-6.518,10.436-13.168,14.958-20.002c10.416,0.266,16.08,1.186,17.082,1.995C99.758,87.035,100.067,88.025,100.141,89.168z
		 M82.1,80.437c-4.899,7.739-24.545,35.409-33.263,38.356c-3.062,0.988-6.957,0.107-8.344-2.635
		c-2.105-4.215,1.911-8.902,4.756-12.586c0.688-0.893,1.502-1.95,2.413-3.119v-0.002v-0.002L49.02,98.7
		c17.696-22.789,18.865-24.833,23.22-27.006c6.771-3.449,12.371,0.446,11.705,4.671c-0.002,0.01,0.006,0.017,0.004,0.025
		C83.749,77.832,82.873,79.217,82.1,80.437z M85.689,74.493c-0.67-3.209-3.814-5.907-8.182-5.943
		c1.556-2.169,3.558-4.768,3.57-4.784c2.102,2.122,5.38,4.805,7.809,6.52C87.931,71.876,86.846,73.304,85.689,74.493z
		 M83.186,63.286c-3.232-3.057-6.291-6.782-6.991-11.16c-0.843-5.216,2.286-10.711,7.444-13.065
		c5.844-2.68,22.867-15.798,26.486-17.518c3.333-1.605,7.626-3.147,10.573-0.624c2.232,1.931,2.294,5.455,2.099,8.308
		c-0.051,0.747-0.162,1.491-0.234,2.238l-1.444-1.444l0.354-0.354c0.178-0.178,0.178-0.465,0-0.644s-0.465-0.178-0.644,0
		l-0.354,0.354l-1.008-1.007c-0.178-0.178-0.465-0.178-0.643,0c-0.179,0.178-0.179,0.465,0,0.644l1.007,1.007l-1.937,1.937
		c-0.144,0.144-0.141,0.349-0.051,0.52c-0.09,0.171-0.093,0.376,0.051,0.52l1.471,1.471l-2.744,2.746l-0.741-0.742
		c-0.179-0.178-0.466-0.178-0.644,0c-0.178,0.178-0.178,0.466,0,0.642l2.467,2.467l-3.929,3.927c-0.179,0.178-0.179,0.465,0,0.644
		s0.466,0.178,0.644,0l1.438-1.437c0.021,0.037,0.015,0.079,0.046,0.109l3.23,3.231c0.089,0.089,0.205,0.133,0.322,0.133
		c0.055,0,0.1-0.044,0.15-0.064c-0.508,1.644-1.063,3.269-1.682,4.875l-1.724-1.724l1.476-1.476c0.179-0.178,0.179-0.466,0-0.644
		c-0.178-0.178-0.465-0.178-0.643,0l-1.477,1.477l-1.937-1.937c-0.179-0.178-0.466-0.178-0.644,0c-0.178,0.178-0.178,0.466,0,0.644
		l1.936,1.936l-1.936,1.937c-0.178,0.178-0.178,0.465,0,0.644s0.465,0.178,0.644,0l1.937-1.937l1.777,1.778
		c0.071,0.071,0.164,0.091,0.257,0.105c-2.034,5.116-4.618,9.997-7.702,14.52c-0.021-0.067-0.025-0.14-0.08-0.193l-0.518-0.518
		l0.344-0.344c0.178-0.178,0.178-0.465,0-0.644s-0.466-0.178-0.645,0l-0.343,0.344l-3.407-3.409l2.876-2.876l1.614,1.615
		l-1.404,1.404c-0.179,0.178-0.179,0.465,0,0.644c0.178,0.178,0.465,0.178,0.643,0l1.406-1.404l1.273,1.274
		c0.179,0.178,0.467,0.178,0.645,0s0.178-0.465,0-0.644l-1.275-1.274l1.875-1.875c0.178-0.178,0.178-0.465,0-0.644
		s-0.465-0.178-0.644,0l-1.874,1.875l-1.615-1.617l2.561-2.56c0.172-0.173,0.17-0.447,0.007-0.625l2.922,2.923
		c0.179,0.178,0.466,0.178,0.642,0c0.179-0.178,0.179-0.465,0-0.642l-4.461-4.462c-0.179-0.178-0.466-0.178-0.645,0
		c-0.178,0.178-0.178,0.465,0,0.644l1.515,1.515c-0.178-0.164-0.452-0.166-0.626,0.007l-2.559,2.56l-0.74-0.74
		c-0.179-0.178-0.466-0.178-0.645,0c-0.178,0.178-0.178,0.466,0,0.644l0.74,0.74l-2.876,2.876v-0.007
		c-0.179-0.178-0.466-0.178-0.642,0c-0.179,0.178-0.179,0.465,0,0.644l0.011,0.011l-1.073,1.075c-0.178,0.178-0.178,0.465,0,0.644
		c0.179,0.178,0.466,0.178,0.645,0l1.072-1.073l1.527,1.527c-0.154-0.045-0.32-0.038-0.441,0.083l-3.146,3.146l-2.334-2.334
		c-0.178-0.178-0.466-0.178-0.644,0c-0.179,0.178-0.179,0.465,0,0.642l2.335,2.334l-1.55,1.549l-1.871-1.871
		c-0.178-0.178-0.466-0.178-0.644,0s-0.178,0.465,0,0.644l1.871,1.871l-1.615,1.617l-2.533-2.535c-0.179-0.178-0.467-0.178-0.645,0
		s-0.178,0.465,0,0.642l2.535,2.535l-0.787,0.788c-0.799-0.36-1.564-0.766-2.261-1.167C90.578,69.46,86.744,66.625,83.186,63.286z"
		/>
	<path d="M94.431,41.391c-0.659-0.246-1.245-0.66-1.709-1.184c1.497-1.054,3.002-2.094,4.532-3.098
		c0.388,0.589,0.809,1.157,1.284,1.669c0.171,0.184,0.454,0.196,0.642,0.025c0.184-0.171,0.195-0.458,0.025-0.644
		c-0.439-0.475-0.826-0.997-1.186-1.54c1.25-0.809,2.493-1.625,3.762-2.4l0.635,0.791c0.158,0.196,0.443,0.228,0.641,0.071
		c0.194-0.158,0.227-0.444,0.068-0.64l-0.572-0.715c1.105-0.667,2.244-1.276,3.365-1.918c0.139,0.258,0.308,0.502,0.413,0.776
		c0.093,0.24,0.362,0.353,0.587,0.264c0.234-0.089,0.352-0.351,0.262-0.585c-0.121-0.318-0.268-0.627-0.429-0.927
		c1.034-0.583,2.049-1.202,3.095-1.762c0.222-0.118,0.303-0.395,0.186-0.617c-0.119-0.222-0.395-0.302-0.615-0.187
		c-1.062,0.569-2.092,1.196-3.142,1.789c-0.372-0.533-0.81-1.018-1.304-1.442c-0.189-0.164-0.477-0.142-0.642,0.047
		c-0.163,0.189-0.142,0.478,0.048,0.642c0.414,0.356,0.775,0.768,1.094,1.209c-1.164,0.665-2.344,1.303-3.492,1.998l-0.567-0.706
		c-0.157-0.196-0.444-0.227-0.64-0.071c-0.195,0.158-0.227,0.443-0.07,0.64l0.506,0.631c-1.236,0.756-2.449,1.549-3.665,2.338
		c-0.356-0.642-0.667-1.309-0.9-2c-0.079-0.238-0.335-0.365-0.574-0.285c-0.238,0.082-0.366,0.338-0.286,0.576
		c0.257,0.762,0.599,1.497,0.993,2.2c-1.546,1.014-3.065,2.063-4.576,3.127c-0.19-0.336-0.349-0.691-0.442-1.067
		c-0.06-0.242-0.309-0.409-0.551-0.331c-0.243,0.06-0.393,0.305-0.332,0.551c0.121,0.487,0.334,0.94,0.589,1.369
		c-1.276,0.911-2.562,1.807-3.812,2.753l-1.087-1.324c-0.159-0.193-0.447-0.22-0.64-0.062c-0.195,0.16-0.223,0.445-0.064,0.64
		l1.077,1.311c-1.802,1.378-3.597,2.767-5.337,4.216c-0.192,0.162-0.218,0.447-0.058,0.642c0.165,0.196,0.452,0.214,0.642,0.058
		c1.74-1.447,3.531-2.836,5.331-4.212l2.048,2.494c0.163,0.195,0.448,0.22,0.639,0.062c0.195-0.16,0.223-0.445,0.064-0.642
		l-2.037-2.48c1.231-0.931,2.498-1.815,3.757-2.711c0.571,0.667,1.296,1.202,2.126,1.513c0.23,0.087,0.496-0.029,0.585-0.268
		C94.785,41.74,94.666,41.48,94.431,41.391z"/>
	<path d="M50.917,41.871c0.178,0.178,0.465,0.178,0.644,0l0.443-0.444l1.209,1.209c0.178,0.178,0.465,0.178,0.644,0
		s0.178-0.465,0-0.644l-1.209-1.209l0.895-0.893c0.178-0.178,0.178-0.466,0-0.644c-0.178-0.178-0.466-0.178-0.644,0l-0.895,0.893
		l-0.443-0.444c-0.178-0.178-0.465-0.178-0.644,0s-0.178,0.465,0,0.644l0.443,0.444l-0.443,0.443
		C50.74,41.405,50.74,41.693,50.917,41.871z"/>
	<path d="M66.991,83.042l-2.078,2.665c-0.616-0.41-1.627-1.351-2.001-0.789c-0.14,0.209-0.082,0.493,0.125,0.631l1.315,0.877
		l-2.507,3.216L61.1,88.949c-0.149-0.143-0.376-0.16-0.551-0.053l-0.547,0.346c-0.213,0.135-0.275,0.416-0.14,0.627
		c0.133,0.211,0.415,0.271,0.627,0.141l0.249-0.157l0.545,0.507l-3.242,4.157l-1.74-1.137c-0.207-0.138-0.491-0.078-0.629,0.131
		c-0.137,0.211-0.077,0.493,0.133,0.63l1.674,1.094l-3.364,4.314c-0.362-0.443-0.678-0.938-0.962-1.443
		c-0.124-0.221-0.4-0.295-0.618-0.175c-0.218,0.122-0.296,0.4-0.172,0.618c0.32,0.573,0.707,1.184,1.186,1.729l-2.449,3.14
		c-0.583-0.436-1.104-0.961-1.489-1.578c-0.133-0.213-0.415-0.274-0.625-0.146c-0.212,0.133-0.278,0.415-0.146,0.626
		c0.44,0.707,1.037,1.309,1.704,1.811l-2.654,3.404c-0.155,0.195-0.118,0.482,0.078,0.638c0.204,0.156,0.485,0.116,0.638-0.08
		l2.706-3.47c0.654,0.371,1.353,0.666,2.091,0.801c0.236,0.045,0.482-0.111,0.529-0.365c0.046-0.248-0.12-0.484-0.365-0.529
		c-0.595-0.109-1.156-0.342-1.691-0.627l2.324-2.98c0.667,0.49,1.491,0.774,2.3,0.614c0.246-0.047,0.407-0.287,0.358-0.532
		c-0.049-0.248-0.282-0.404-0.533-0.358c-0.495,0.097-1.058-0.075-1.565-0.442l3.493-4.479c0.893,0.534,1.471,0.374,1.792,0.005
		c0.164-0.188,0.144-0.478-0.045-0.641c-0.189-0.166-0.476-0.145-0.642,0.043c-0.047,0.055-0.264,0.004-0.538-0.139l3.129-4.012
		l0.511,0.477c0.184,0.172,0.473,0.159,0.642-0.022c0.171-0.186,0.162-0.473-0.022-0.644l-0.571-0.531l2.598-3.33l0.858,0.572
		c0.207,0.139,0.489,0.084,0.631-0.125c0.14-0.209,0.082-0.493-0.125-0.631l-0.804-0.535l2.038-2.613
		c0.155-0.195,0.12-0.482-0.078-0.638C67.429,82.809,67.144,82.842,66.991,83.042z"/>
</g>
</svg>
