<?xml version="1.0" encoding="utf-8"?>
<!-- Generator: Adobe Illustrator 16.0.0, SVG Export Plug-In . SVG Version: 6.00 Build 0)  -->
<!DOCTYPE svg PUBLIC "-//W3C//DTD SVG 1.1//EN" "http://www.w3.org/Graphics/SVG/1.1/DTD/svg11.dtd">
<svg version="1.1" id="Capa_1" xmlns="http://www.w3.org/2000/svg" xmlns:xlink="http://www.w3.org/1999/xlink" x="0px" y="0px"
	 width="150px" height="150px" viewBox="0 0 150 150" enable-background="new 0 0 150 150" xml:space="preserve">
<g>
	<path d="M130.142,116.393c-0.319-3.224-2.245-4.709-14.993-18.455c-0.322-1.079-0.648-1.461-1.262-2.078
		c0.162-0.08,0.33-0.15,0.488-0.239c0.002-0.002,0.004-0.002,0.005-0.004c4.593-2.658,6.791-11.485-5.017-11.806
		c-2.477-0.064-4.981-0.112-7.471-0.17c-0.178-0.191-0.076-0.086-19.435-20.952c4.886-3.776,6.325-9.684,4.901-13.98
		c-1.119-3.429-4.232-6.055-7.572-6.385c-0.34-0.029-1.262-0.062-1.463-0.336c-0.035-0.045-0.043-0.14-0.059-0.214
		c0.905-0.102,1.807-0.322,2.593-0.909c1.811-1.378,1.849-3.949,1.867-5.329l0.071-4.286c0.027-0.993,0.002-2.129-0.626-3.062
		c-1.009-1.529-3.049-1.717-4.144-1.818c-2.131-0.196-4.547-0.415-6.88,0.153c-2.682,0.656-4.816,2.409-5.569,4.567
		c-0.483,1.344-0.438,2.766-0.347,4.131c0.131,1.833,0.438,6.125,3.311,6.521c0.72,0.098,1.527,0.155,2.383,0.191
		c-1.104,5.647,4.678,6.073,6.497,6.756c2.189,0.826,3.605,3.451,3.091,5.735c-1.131,5.053-8.417,6.189-11.998-2.666
		c-1.533-3.886-4.518-2.366-5.142,0.533c-0.895,3.873,0.698,8.624,4.671,11.231c-6.607,7.28-6.684,7.738-17.445,19.48
		C35.28,82.979,34.04,82.858,31.722,83.7c-4.633,1.684-5.862,6.874-2.054,9.694c-4.849,1.412-5.946,5.834-4.033,8.531
		c0.921,1.3,2.545,2.279,4.887,2.979c-0.457,0.498-9.924,10.764-10.291,11.33c-2.944,1.695-4.091,4.17-3.042,6.673
		c1.482,3.519,3.107,2.149,24.647,2.367l54.545,0.374c9.19,0.072,18.38,0.13,27.558,0.189h0.191
		c0.219,0.002,0.439,0.002,0.666,0.002C134.222,125.84,135.264,118.49,130.142,116.393z M128.18,115.811
		c-0.199-0.034-1.082-0.142-1.303-0.16c-0.979-0.08-8.099-0.19-9.098-0.209c2.974-1.758,4.729-5.836,2.82-8.771
		c-1.458-2.222-4.117-2.789-6.908-2.945c0.738-0.898,1.301-1.94,1.545-3.024C126.274,112.609,127.51,113.613,128.18,115.811z
		 M41.753,114.038c-12.208-1.311-9.647-6.757-7.047-8.28c1.184,0.151,47.431,0.902,48.449,0.918l19.424,0.346
		c4.404,0.071,6.477-0.15,9.131-1.549c4.076,0.118,8.778,0.627,7.749,4.918c-0.343,1.43-1.358,2.778-2.649,3.521l0,0
		c-2.429,1.408-5.619,1.346-8.188,1.291l-53.618-0.925c-0.082-0.002-0.171-0.002-0.262-0.002
		C50.407,114.196,46.08,114.118,41.753,114.038z M44.042,92.846l7.354-8.025c16.66,0.032,33.279,0.242,49.686,0.619
		c2.589,2.791,5.176,5.582,7.764,8.373C105.746,93.48,69.535,92.848,44.042,92.846z M111.027,96.166
		c0.824,0.889,1.648,1.777,2.473,2.666c0.316,1.91-0.93,3.949-2.531,4.957l0.014,0.02c-2.653,1.357-4.422,1.465-8.373,1.398
		l-19.424-0.346c-1.38-0.023-47.156-0.752-48.535-0.941h-0.002c-0.229-0.033-0.438-0.07-0.658-0.105l8.371-9.133
		C46.214,94.676,107.274,94.727,111.027,96.166z M109.314,85.629c3.911,0.107,7.711,1.076,6.802,4.888
		c-0.34,1.425-1.353,2.776-2.646,3.525c-0.414,0.236-0.855,0.435-1.313,0.593c-0.035-0.017-0.07-0.023-0.105-0.039
		c-2.813-3.032-5.623-6.064-8.437-9.096C105.511,85.545,107.426,85.578,109.314,85.629z M77.889,63.073
		C77.889,63.073,77.891,63.073,77.889,63.073c0.154-0.153,0.149-0.375,0.042-0.549l0.896-0.896c0.249,0.209,0.495,0.431,0.735,0.666
		c0.018,0.016,0.033,0.032,0.051,0.051C78.51,62.925,78.766,62.789,77.889,63.073z M70.502,62.709c0.178,0.178,0.465,0.178,0.644,0
		s0.178-0.465,0-0.644l-0.208-0.207l0.864-0.864c0.005,0.107,0.042,0.214,0.124,0.298l0.495,0.494l-1.133,1.133
		c-0.034,0.035-0.031,0.083-0.053,0.125c-0.36-0.124-0.712-0.266-1.054-0.429l0.114-0.116L70.502,62.709z M72.182,63.311l0.88-0.88
		l0.618,0.619c0.178,0.178,0.465,0.178,0.644,0c0.087-0.087,0.131-0.202,0.131-0.316c0.22,0.172,0.443,0.132,0.596-0.02l0.92-0.92
		l0.705,0.705c-0.174,0.178-0.176,0.464,0.002,0.64c0.179,0.178,0.466,0.178,0.643,0l0.025-0.025c0.062,0.038,0.121,0.073,0.19,0.08
		C75.831,63.678,74.214,63.796,72.182,63.311z M75.309,60.182c0.013-0.013,0.009-0.034,0.02-0.049
		c0.075,0.003,0.156,0.005,0.267-0.005c0.217,0.005,0.426,0.069,0.639,0.114l-0.297,0.296c-0.174-0.102-0.391-0.107-0.539,0.042
		c-0.149,0.149-0.144,0.365-0.044,0.54l-0.949,0.949c-0.082,0.082-0.118,0.189-0.124,0.298l-0.58-0.58L75.309,60.182z
		 M81.996,58.458l1.046,1.045c0.032,0.033,0.08,0.027,0.118,0.049c-0.582,0.673-1.229,1.287-1.939,1.82
		c-0.016-0.014-0.029-0.027-0.045-0.04c-0.321-0.325-0.652-0.634-0.992-0.933c-0.023-0.02-0.043-0.043-0.067-0.063L81.996,58.458z
		 M77.316,61.854l-0.703-0.704l0.583-0.585c0.551,0.26,0.255,0.071,0.895,0.515L77.316,61.854z M86.033,52.706
		c0,0.001,0,0.003,0,0.007l-0.844,0.843l-0.352-0.349l0.848-0.847L86.033,52.706z M85.831,54.198
		c-0.002,0.009-0.004,0.018-0.005,0.027c-0.004-0.005-0.002-0.011-0.008-0.017L85.831,54.198z M79.764,39.413
		c-0.639,0.477-1.547,0.564-2.506,0.617c-0.787,0.04-1.531,0.072-2.265,0.098c0.047-0.022,0.104-0.02,0.142-0.058l0.908-0.909
		l0.178,0.176c0.178,0.178,0.465,0.178,0.643,0c0.179-0.178,0.179-0.465,0-0.644l-0.176-0.176l0.557-0.557l1.115,1.116
		c0.179,0.178,0.467,0.178,0.645,0c0.178-0.178,0.178-0.465,0-0.644l-1.117-1.116l1.357-1.356l0.736,0.736
		c0.178,0.178,0.465,0.178,0.643,0c0.179-0.178,0.179-0.465,0-0.642l-2.06-2.06l1.604-1.604l0.727,0.727
		c0.015,0.015,0.038,0.009,0.053,0.022l-0.038,2.367C80.885,36.991,80.778,38.64,79.764,39.413z M70.033,39.731
		c0.178,0.178,0.465,0.178,0.644,0s0.178-0.465,0-0.644l-0.325-0.326l0.896-0.896l0.711,0.711l-0.416,0.417
		c-0.178,0.178-0.178,0.465,0,0.642c0.178,0.178,0.465,0.178,0.644,0l0.417-0.417l0.178,0.178c0.178,0.178,0.466,0.178,0.644,0
		s0.178-0.466,0-0.644l-0.178-0.178l1.111-1.111l1.049,1.049l-0.909,0.909c-0.178,0.178-0.178,0.465,0,0.644
		c0.049,0.049,0.116,0.051,0.176,0.073c-0.846,0.025-1.671,0.037-2.5,0.018c-1.155-0.011-2.138-0.076-3.033-0.184l0.571-0.571
		L70.033,39.731z M72.997,36.113l0.71,0.711l-1.111,1.111l-0.711-0.711L72.997,36.113z M75.551,36.267l1.049,1.049l-0.557,0.556
		l-1.048-1.049L75.551,36.267z M80.807,31.747l0.117-0.116c0.033-0.033,0.029-0.08,0.049-0.118l-0.008,0.395L80.807,31.747z
		 M80.979,31.122c-0.021-0.044-0.019-0.097-0.055-0.133c-0.178-0.178-0.466-0.178-0.645,0l-0.115,0.116l-0.619-0.618l1.151-1.151
		c0.007-0.007,0.005-0.02,0.011-0.027C80.969,29.782,80.994,30.453,80.979,31.122z M67.293,31.696
		c0.664-1.902,2.649-3.007,4.287-3.407c2.038-0.498,4.293-0.291,6.281-0.109c0.779,0.071,1.604,0.187,2.199,0.509
		c-0.002,0.002-0.004,0-0.004,0l-1.152,1.151l-0.018-0.016c-0.178-0.178-0.465-0.178-0.643,0c-0.179,0.178-0.179,0.465,0,0.644
		l0.016,0.016L78.244,30.5c-0.179,0.178-0.179,0.465,0,0.642c0.178,0.178,0.465,0.178,0.643,0l0.018-0.016l0.617,0.618l-1.701,1.702
		c-0.115,0.002-0.228,0.044-0.314,0.131c-0.179,0.178-0.179,0.466,0,0.644l1.092,1.094l-1.355,1.356l-1.09-1.089
		c0.08-0.169,0.082-0.366-0.058-0.506c-0.179-0.178-0.466-0.178-0.644,0l-1.1,1.105l-0.748-0.747
		c0.089-0.171,0.093-0.376-0.051-0.52c-0.178-0.178-0.465-0.178-0.644,0l-1.667,1.667L70.64,35.98c-0.178-0.178-0.465-0.178-0.644,0
		s-0.178,0.465,0,0.644l0.602,0.602l-0.896,0.896l-1.216-1.217c-0.178-0.178-0.465-0.178-0.642,0c-0.178,0.178-0.178,0.466,0,0.644
		l1.216,1.216l-0.846,0.845c-0.905-0.922-1.104-3.547-1.172-4.527C66.965,33.88,66.924,32.72,67.293,31.696z M82.287,54.82
		c0.715-3.171-1.18-6.685-4.224-7.833c-1.817-0.688-6.511-0.913-5.292-5.004c0.015,0,0.031-0.001,0.045-0.001
		c0.067,0,0.136,0.001,0.204,0.001c1.055,0,2.129-0.042,3.244-0.091c0.055-0.001,0.104-0.001,0.156-0.003
		c0.445,4.075,6.804,0.005,9.213,7.387c0.226,0.682,0.354,1.407,0.403,2.151l-1.06-1.06c-0.178-0.178-0.466-0.178-0.645,0
		c-0.178,0.178-0.178,0.465,0,0.644l0.708,0.708l-0.937,0.936c-0.121-0.005-0.245,0.033-0.338,0.125
		c-0.093,0.095-0.131,0.217-0.125,0.338l-0.867,0.867c-0.179,0.178-0.179,0.466,0,0.644c0.178,0.178,0.465,0.178,0.641,0
		l0.779-0.778l0.35,0.349l-0.99,0.991c-0.04,0.04-0.038,0.098-0.063,0.147l-0.359-0.36c-0.178-0.178-0.465-0.178-0.644,0
		s-0.179,0.466,0,0.644l1.601,1.6c0.178,0.178,0.465,0.178,0.643,0c0.179-0.178,0.179-0.465,0-0.644l-0.684-0.684
		c0.049-0.022,0.107-0.02,0.147-0.062l1.002-1.001c0.083,0.069,0.182,0.118,0.284,0.118c0.066,0,0.123-0.047,0.184-0.077
		c-0.447,1.642-1.099,2.844-1.975,4.011c-0.006-0.006-0.004-0.017-0.01-0.022l-1.045-1.045l0.349-0.349
		c0.179-0.178,0.179-0.465,0-0.644c-0.178-0.178-0.466-0.178-0.644,0l-0.38,0.38c-0.175-0.102-0.391-0.105-0.538,0.043
		c-0.148,0.149-0.144,0.366-0.044,0.539l-1.985,1.985c-0.167-0.124-0.334-0.246-0.508-0.358c-0.047-0.031-0.088-0.071-0.136-0.1
		C80.494,58.382,81.858,56.733,82.287,54.82z M65.149,52.686c0.109-0.507,0.553-1.605,1.004-1.413
		c0.254,0.094,0.569,0.891,0.674,1.158c1.431,3.54,3.715,6.728,7.437,7.511l-1.202,1.204l-0.495-0.495
		c-0.082-0.082-0.189-0.116-0.298-0.124l0.153-0.153c0.424-0.422-0.216-1.069-0.642-0.644l-1.485,1.485l-0.778-0.778
		c-0.178-0.178-0.466-0.178-0.644,0s-0.178,0.466,0,0.644l0.778,0.778l-0.316,0.316C65.806,60.049,64.387,55.987,65.149,52.686z
		 M69.678,64.417c1.576,0.7,3.418,1.036,4.96,1.036c1.965,0,4.189-0.493,6.307-1.72l14.729,15.878
		c1.229,1.323,2.455,2.646,3.685,3.971C84.061,83.24,68.587,83.04,53.065,83C61.887,73.376,63.989,70.664,69.678,64.417z
		 M32.346,85.407c1.996-0.728,3.353-0.601,16.585-0.587l-7.358,8.029c-6.198,0.005-7.722-0.016-9.02,0.07
		C27.497,90.905,28.809,86.694,32.346,85.407z M27.12,100.873c-1.238-1.748-0.438-4.515,2.565-5.605
		c1.976-0.725,4.202-0.576,10.209-0.588l-7.995,8.725C29.502,102.814,27.896,101.969,27.12,100.873z M31.369,106.673
		c-1.234,2.384-0.774,5.401,2.673,7.238c-3.284-0.007-6.975,0.188-10.184,0.954L31.369,106.673z M32.636,123.393
		c-11.903,0-12.947,0.758-13.769-1.192c-0.942-2.245,1.129-3.786,2.449-4.506c0.611-0.335,1.318-0.62,2.042-0.823
		c5.287-1.479,11.056-1.15,18.049-1.021c3.989,0.445,8.28,0.347,11.278,0.279c0.895-0.021,1.616-0.038,2.153-0.031
		c23.589,0.438,47.179,0.877,70.769,1.308c2.068,0.04,5.091,0.413,5.664,2.392c0.125,0.443,0.083,0.896-0.059,1.33l-2.437-2.438
		c-0.179-0.179-0.466-0.179-0.644,0c-0.178,0.178-0.178,0.465,0,0.643l0.35,0.35c-0.075,0.02-0.151,0.029-0.209,0.088l-0.81,0.809
		l-0.29-0.289c-0.178-0.178-0.465-0.178-0.643,0c-0.179,0.178-0.179,0.465,0,0.644l0.289,0.289l-1.151,1.151l-1.667-1.67
		l0.424-0.424c0.178-0.178,0.178-0.465,0-0.643c-0.179-0.179-0.466-0.179-0.645,0l-2.473,2.473l-1.516-1.517
		c-0.178-0.179-0.466-0.179-0.645,0c-0.178,0.179-0.178,0.466,0,0.644l1.518,1.517l-1.186,1.185
		c-0.016,0.016-0.01,0.037-0.022,0.052c-0.251-0.002-0.503-0.004-0.757-0.006l-1.518-1.519l1.957-1.955
		c0.178-0.179,0.178-0.467,0-0.645c-0.179-0.178-0.467-0.178-0.645,0l-1.956,1.957l-1.415-1.415c-0.178-0.179-0.465-0.179-0.643,0
		c-0.179,0.179-0.179,0.466,0,0.644l1.414,1.414l-1.365,1.366c-0.017,0.017-0.014,0.042-0.025,0.062l-2.063-2.062l2.955-2.954
		c0.178-0.179,0.178-0.466,0-0.645c-0.178-0.178-0.466-0.178-0.643,0l-2.954,2.955l-0.22-0.221c-0.178-0.178-0.466-0.178-0.645,0
		c-0.178,0.179-0.178,0.466,0,0.645l0.221,0.22l-1.021,1.021l-1.723-1.722l1.752-1.751c0.178-0.179,0.178-0.466,0-0.644
		c-0.179-0.178-0.466-0.178-0.645,0l-1.75,1.751l-0.078-0.078c-0.179-0.179-0.467-0.179-0.643,0c-0.178,0.179-0.178,0.466,0,0.644
		l0.078,0.078l-1.408,1.409l-1.944-1.944c-0.179-0.178-0.466-0.178-0.644,0c-0.178,0.179-0.178,0.467,0,0.645l1.943,1.943
		l-0.112,0.113c-0.165,0.163-0.16,0.418-0.021,0.596c-0.789-0.006-1.578-0.011-2.367-0.016l-1.518-1.519l3.22-3.22
		c0.179-0.179,0.179-0.466,0-0.645c-0.179-0.178-0.466-0.178-0.642,0l-3.221,3.221l-1.303-1.304c-0.179-0.179-0.466-0.179-0.645,0
		c-0.178,0.178-0.178,0.466,0,0.644l1.305,1.304l-1.41,1.409l-2.098-2.099l2.5-2.5c0.178-0.179,0.178-0.466,0-0.644
		s-0.466-0.178-0.645,0l-2.5,2.5l-0.056-0.057c-0.179-0.178-0.466-0.178-0.644,0c-0.178,0.179-0.178,0.466,0,0.645l0.057,0.056
		l-1.466,1.466l-2.153-2.152l1.027-1.027c0.179-0.179,0.179-0.466,0-0.645c-0.178-0.178-0.465-0.178-0.643,0l-1.057,1.057
		c-0.175-0.102-0.391-0.107-0.54,0.042s-0.144,0.367-0.042,0.54l-1.438,1.438l-1.793-1.792c-0.179-0.179-0.466-0.179-0.645,0
		c-0.178,0.179-0.178,0.466,0,0.644l1.793,1.793l-0.156,0.156c-0.162,0.162-0.156,0.407-0.023,0.586l-2.285-0.018l-1.605-1.605
		l2.188-2.186c0.178-0.178,0.178-0.465,0-0.643c-0.179-0.179-0.467-0.179-0.645,0l-2.188,2.186l-1.1-1.101
		c-0.178-0.179-0.465-0.179-0.642,0c-0.179,0.179-0.179,0.466,0,0.644l1.101,1.1l-1.359,1.357c-0.02,0.02-0.014,0.051-0.03,0.072
		l-2.28-2.28l1.38-1.38c0.179-0.178,0.179-0.465,0-0.644c-0.178-0.179-0.466-0.179-0.642,0l-1.674,1.673
		c-0.012,0.009-0.027,0.006-0.039,0.016c-0.011,0.012-0.007,0.027-0.016,0.039l-1.859,1.855c-0.016,0.018-0.01,0.041-0.023,0.059
		l-2.221-2.224l0.436-0.437c0.178-0.178,0.178-0.465,0-0.643c-0.178-0.179-0.465-0.179-0.644,0l-2.489,2.488l-1.513-1.513
		c-0.124-0.124-0.291-0.129-0.445-0.081l0.726-0.727c0.178-0.178,0.178-0.465,0-0.643c-0.178-0.179-0.465-0.179-0.644,0
		l-2.782,2.781l-1.507-1.508l1.149-1.148c0.178-0.178,0.178-0.466,0-0.644c-0.178-0.179-0.465-0.179-0.644,0l-3.2,3.2l-0.86-0.86
		c-0.178-0.179-0.465-0.179-0.644,0s-0.178,0.466,0,0.644l0.86,0.859l-0.5,0.5c-0.171,0.172-0.167,0.44-0.009,0.619l-0.714-0.006
		c-0.003-0.111-0.042-0.222-0.127-0.305l-1.796-1.795l2.398-2.398c0.178-0.178,0.178-0.465,0-0.644s-0.465-0.179-0.644,0
		l-4.693,4.692l-1.065-1.065c-0.178-0.178-0.465-0.178-0.644,0c-0.178,0.179-0.178,0.466,0,0.644l0.834,0.835l-12.887-0.087
		C38.822,123.424,35.734,123.393,32.636,123.393z M123.213,124.013l-1.262-1.262l1.408-1.409l1.668,1.669l-1.008,1.007h-0.066
		C123.707,124.017,123.46,124.015,123.213,124.013z M121.918,124.006c-0.403-0.002-0.807-0.006-1.211-0.01l0.602-0.602
		L121.918,124.006z M125.671,123.654l0.177,0.177c0.089,0.089,0.205,0.133,0.321,0.133s0.233-0.044,0.321-0.133
		c0.179-0.179,0.179-0.466,0-0.644l-0.176-0.177l1.15-1.151l1.529,1.529c-1.127,0.484-2.398,0.609-3.686,0.628L125.671,123.654z
		 M107.089,123.904l-0.724-0.723l1.409-1.408l2.062,2.061c0.061,0.061,0.143,0.071,0.221,0.092
		C109.065,123.916,108.078,123.909,107.089,123.904z M105.795,123.895c-0.048,0-0.095,0-0.143,0l0.071-0.07L105.795,123.895z
		 M110.479,123.832c0.068-0.068,0.087-0.159,0.104-0.248c0.065-0.021,0.139-0.025,0.189-0.078l1.032-1.033l1.475,1.475
		c-1.007-0.008-2.017-0.015-3.024-0.02C110.334,123.905,110.416,123.895,110.479,123.832z M117.409,123.975
		c-0.573-0.004-1.147-0.008-1.722-0.013l0.854-0.854L117.409,123.975z M101.287,123.863c-0.572-0.004-1.146-0.007-1.72-0.011
		l0.854-0.854L101.287,123.863z M90.074,123.785l-0.756-0.756l1.408-1.409l2.186,2.186L90.074,123.785z M88.779,123.776
		l-0.209-0.002l0.104-0.104L88.779,123.776z M72.78,123.668l-0.92-0.921l1.409-1.409l2.347,2.348L72.78,123.668z M68.271,123.637
		l-1.067-1.067l1.778-1.778c-0.047,0.156-0.042,0.324,0.082,0.445l1.513,1.513l-0.222,0.222c-0.178,0.178-0.178,0.466,0,0.645
		c0.025,0.025,0.063,0.02,0.095,0.039L68.271,123.637z M64.142,123.607l-1.138-1.139l1.409-1.408l1.564,1.563
		c-0.051,0.156-0.046,0.326,0.08,0.451c0.089,0.09,0.206,0.133,0.322,0.133c0.047,0,0.083-0.039,0.129-0.055l0.473,0.473
		L64.142,123.607z M62.847,123.598l-0.967-0.007l0.48-0.479L62.847,123.598z M70.997,123.613l0.222-0.223l0.267,0.268l-0.591-0.004
		C70.927,123.635,70.969,123.641,70.997,123.613z M76.485,123.635c0.114-0.002,0.228-0.044,0.314-0.131l1.563-1.564l1.777,1.777
		l-3.679-0.025C76.471,123.673,76.48,123.654,76.485,123.635z M84.273,123.746l-1.896-0.014l0.94-0.939L84.273,123.746z
		 M57.925,122.123l1.453,1.451l-2.883-0.02L57.925,122.123z M94.122,123.814l1.505-1.506l1.527,1.527
		c-0.252-0.002-0.506-0.004-0.758-0.005L94.122,123.814z M129.826,122.945c-0.145-0.156-1.568-1.576-1.719-1.727l0.809-0.81
		c0.059-0.058,0.066-0.136,0.088-0.209l1.587,1.589c0.071,0.069,0.163,0.091,0.253,0.105
		C130.576,122.299,130.224,122.658,129.826,122.945z"/>
	<path d="M57.105,110.093v0.738c0,0.251,0.204,0.454,0.455,0.454s0.455-0.203,0.455-0.454v-0.738h3.929v0.517
		c0,0.25,0.204,0.454,0.454,0.454c0.251,0,0.455-0.204,0.455-0.454v-0.517h3.177v0.649c0,0.25,0.204,0.454,0.454,0.454
		c0.251,0,0.455-0.204,0.455-0.454v-0.649h3.284v0.751c0,0.251,0.204,0.455,0.455,0.455s0.455-0.204,0.455-0.455v-0.751h1.562v1.003
		c0,0.252,0.204,0.455,0.455,0.455c0.25,0,0.455-0.203,0.455-0.455v-1.003h2.468c0.252,0,0.455-0.204,0.455-0.454
		c0-0.252-0.203-0.455-0.455-0.455h-2.468v-0.513c0-0.251-0.204-0.454-0.455-0.454c-0.251,0-0.455,0.203-0.455,0.454v0.513h-1.562
		v-0.62c0-0.251-0.204-0.454-0.455-0.454s-0.455,0.203-0.455,0.454v0.62h-3.284v-0.299c0-0.25-0.204-0.454-0.455-0.454
		c-0.25,0-0.454,0.204-0.454,0.454v0.299h-3.177v-1.051c0-0.251-0.204-0.455-0.455-0.455c-0.25,0-0.454,0.204-0.454,0.455v1.051
		h-3.929v-0.834c0-0.252-0.204-0.455-0.455-0.455s-0.455,0.203-0.455,0.455v0.834H54.36v-1.373c0-0.25-0.204-0.454-0.455-0.454
		s-0.455,0.204-0.455,0.454v1.373h-5.458c-0.251,0-0.455,0.203-0.455,0.455c0,0.25,0.204,0.454,0.455,0.454h5.458v1.065
		c0,0.251,0.204,0.455,0.455,0.455s0.455-0.204,0.455-0.455v-1.065H57.105z"/>
	<path d="M67.02,100.311h4.598v0.426c0,0.251,0.204,0.455,0.455,0.455s0.455-0.204,0.455-0.455v-0.426h2.746v0.569
		c0,0.251,0.204,0.454,0.454,0.454c0.252,0,0.455-0.203,0.455-0.454v-0.569h3.177v0.808c0,0.251,0.204,0.454,0.454,0.454
		c0.251,0,0.455-0.203,0.455-0.454v-0.808h3.283v0.964c0,0.251,0.203,0.454,0.455,0.454c0.25,0,0.454-0.203,0.454-0.454v-0.964
		h2.209v1.395c0,0.252,0.204,0.455,0.454,0.455c0.252,0,0.455-0.203,0.455-0.455v-1.395h2.207v0.945
		c0,0.252,0.204,0.455,0.455,0.455c0.25,0,0.454-0.203,0.454-0.455v-0.945h3.637c0.251,0,0.454-0.203,0.454-0.454
		s-0.203-0.454-0.454-0.454h-3.637v-0.944c0-0.251-0.204-0.454-0.454-0.454c-0.251,0-0.455,0.203-0.455,0.454v0.944h-2.207v-0.621
		c0-0.25-0.203-0.454-0.455-0.454c-0.25,0-0.454,0.204-0.454,0.454v0.621H84.46v-0.621c0-0.25-0.204-0.454-0.454-0.454
		c-0.252,0-0.455,0.204-0.455,0.454v0.621h-3.283v-0.944c0-0.251-0.204-0.454-0.455-0.454c-0.25,0-0.454,0.203-0.454,0.454v0.944
		h-3.177v-1.158c0-0.252-0.203-0.455-0.455-0.455c-0.25,0-0.454,0.203-0.454,0.455v1.158h-2.746v-0.944
		c0-0.251-0.204-0.454-0.455-0.454s-0.455,0.203-0.455,0.454v0.944H67.02c-0.251,0-0.455,0.203-0.455,0.454
		S66.769,100.311,67.02,100.311z"/>
	<path d="M74.156,88.439H72.96v-0.42c0-0.25-0.204-0.454-0.455-0.454s-0.455,0.204-0.455,0.454v0.42H71.1v-0.53
		c0-0.251-0.204-0.454-0.455-0.454s-0.455,0.203-0.455,0.454v0.53h-2.482v-0.42c0-0.25-0.204-0.454-0.455-0.454
		S66.8,87.77,66.8,88.02v0.42h-2.481v-0.748c0-0.252-0.204-0.455-0.455-0.455s-0.455,0.203-0.455,0.455v0.748h-3.465v-0.967
		c0-0.251-0.204-0.455-0.455-0.455s-0.455,0.204-0.455,0.455v0.967h-1.389v-1.296c0-0.251-0.204-0.454-0.455-0.454
		s-0.455,0.203-0.455,0.454v1.296h-2.827c-0.251,0-0.455,0.204-0.455,0.455s0.204,0.455,0.455,0.455h2.827v1.034
		c0,0.251,0.204,0.454,0.455,0.454s0.455-0.203,0.455-0.454V89.35h1.389v0.484c0,0.252,0.204,0.455,0.455,0.455
		s0.455-0.203,0.455-0.455V89.35h3.465v0.121c0,0.251,0.204,0.455,0.455,0.455s0.455-0.204,0.455-0.455V89.35H66.8v0.781
		c0,0.251,0.204,0.455,0.455,0.455s0.455-0.204,0.455-0.455V89.35h2.482v0.216c0,0.251,0.204,0.454,0.455,0.454
		s0.455-0.203,0.455-0.454V89.35h0.951v0.558c0,0.251,0.204,0.454,0.455,0.454s0.455-0.203,0.455-0.454V89.35h1.196
		c0.251,0,0.455-0.204,0.455-0.455S74.407,88.439,74.156,88.439z"/>
</g>
</svg>
