<?xml version="1.0" encoding="utf-8"?>
<!-- Generator: Adobe Illustrator 16.0.0, SVG Export Plug-In . SVG Version: 6.00 Build 0)  -->
<!DOCTYPE svg PUBLIC "-//W3C//DTD SVG 1.1//EN" "http://www.w3.org/Graphics/SVG/1.1/DTD/svg11.dtd">
<svg version="1.1" id="Capa_1" xmlns="http://www.w3.org/2000/svg" xmlns:xlink="http://www.w3.org/1999/xlink" x="0px" y="0px"
	 width="150px" height="150px" viewBox="0 0 150 150" enable-background="new 0 0 150 150" xml:space="preserve">
<path stroke="#000000" stroke-width="0.25" stroke-miterlimit="10" d="M133.558,63.483l-7.348-19.444
	c-0.013-0.035-0.03-0.068-0.051-0.1l-8.988-13.958c-0.028-0.045-0.063-0.084-0.104-0.118l-8.221-6.96l-0.814-0.665
	c-0.053-0.043-0.112-0.075-0.177-0.095l-0.772-0.244l-8.223-2.54c-0.055-0.018-0.107-0.026-0.16-0.026
	c-0.066,0-0.133,0.012-0.195,0.036l-9.029,3.537c-0.027,0.009-0.051,0.023-0.075,0.037l-0.809,0.471L20.876,62.519l-0.802,0.446
	c-0.075,0.041-0.139,0.1-0.186,0.171l-6.326,9.489l-1.678,0.973c-0.166,0.096-0.268,0.272-0.268,0.464v0.94
	c0,0.191,0.102,0.366,0.266,0.461l0.542,0.316v2.421c0,0.191,0.104,0.367,0.268,0.464l0.358,0.206
	c0.083,0.047,0.175,0.072,0.268,0.072s0.186-0.025,0.269-0.074l3.634-2.111v18.186c0,0.189,0.102,0.367,0.268,0.464l46.048,26.595
	c0.084,0.046,0.176,0.072,0.268,0.072c0.093,0,0.185-0.026,0.268-0.072l64.521-37.245c0.164-0.097,0.267-0.272,0.267-0.464V70.587
	l4.527-2.608c0.167-0.096,0.271-0.272,0.271-0.464v-1.478l0.542-0.316c0.165-0.095,0.267-0.271,0.267-0.462v-0.922
	c0-0.188-0.098-0.362-0.258-0.458L133.558,63.483z M133.664,65.103l-0.677,0.392l0,0l-68.124,39.329v-0.308l68.801-39.718V65.103z
	 M132.854,67.36l-4.662,2.686l-64.136,37.006v-1.77l0.407,0.237c0.042,0.024,0.088,0.035,0.135,0.035s0.092-0.011,0.133-0.035
	l68.126-39.327v1.168H132.854z M128.057,84.138l-63.981,36.938v-13.416l63.981-36.919V84.138z M55.18,84.688
	c-0.004-0.011-0.017-0.013-0.022-0.021c-0.004-0.011,0-0.02-0.004-0.028l-8.391-13c-0.007-0.014-0.025-0.014-0.032-0.025
	c-0.009-0.01-0.009-0.027-0.02-0.035l-8.145-6.903c-0.015-0.011-0.033-0.006-0.05-0.015c-0.018-0.01-0.024-0.029-0.043-0.037
	l-8.182-2.501c-0.028-0.009-0.056,0.006-0.084,0.008c-0.031,0-0.06-0.014-0.091-0.001l-6.393,2.502l0,0l-2.013,0.771
	c-0.028,0.01-0.04,0.038-0.061,0.057c-0.023,0.017-0.051,0.02-0.068,0.044l-8.345,12.547l-0.005-0.004v-2.574
	c0-0.013-0.012-0.022-0.015-0.033c-0.004-0.035-0.02-0.061-0.036-0.092c-0.019-0.03-0.032-0.056-0.061-0.078
	c-0.01-0.009-0.01-0.022-0.022-0.028l-0.676-0.394v-0.312l0.396,0.24l0,0l0,0l0.007,0.004c0.043,0.026,0.091,0.039,0.139,0.039
	c0.087,0,0.174-0.043,0.225-0.124l0.978-1.522l0,0l6.346-9.521l8.865-3.473l8.125,2.51l0,0l0.759,0.246l0.734,0.607c0,0,0,0,0.001,0
	l8.186,6.952l8.99,13.878l7.364,19.613c0.004,0.011,0.015,0.016,0.021,0.026c0.003,0.007-0.001,0.013,0.003,0.02
	c0.004,0.009,0.018,0.005,0.024,0.013c0.02,0.028,0.037,0.057,0.065,0.074c0.002,0,0.002,0.005,0.005,0.007l0.676,0.392v0.305
	l-0.407-0.237c-0.022-0.013-0.048-0.004-0.07-0.009c-0.024-0.006-0.041-0.028-0.065-0.028c-0.013,0-0.021,0.012-0.033,0.014
	c-0.035,0.007-0.06,0.021-0.091,0.037c-0.03,0.02-0.057,0.032-0.079,0.061c-0.008,0.011-0.022,0.011-0.028,0.021
	c-0.013,0.024-0.004,0.046-0.009,0.07c-0.007,0.023-0.028,0.039-0.028,0.065v1.979L55.18,84.688z M17.536,73.817
	c-0.016,0.023-0.008,0.05-0.015,0.074c-0.009,0.026-0.031,0.046-0.031,0.074v1.707l-3.312,1.923l7.8-11.727l1.149-0.44
	L17.536,73.817z M12.877,74.186l-0.198-0.12l0.44-0.255L12.877,74.186z M125.33,44.133l-0.339,0.19l-8.707-13.477l0.353-0.213
	L125.33,44.133z M64.598,104.055l-0.286-0.166l0.422-0.255c0,0,0,0,0-0.002l67.71-39.065c0,0,0-0.002,0.001-0.002
	c0.002,0,0.002,0,0.004,0l0.672-0.406l0.284,0.171L64.598,104.055z M107.661,24.106l7.785,6.611L48.224,69.522l-7.786-6.594
	L107.661,24.106z M64.735,103.016l-7.219-19.112l67.247-38.835l7.217,19.148L64.735,103.016z M57.273,83.426l-8.703-13.49
	l67.253-38.819l8.702,13.47L57.273,83.426z M39.942,63.212l7.79,6.593l-0.318,0.185l-7.781-6.605L39.942,63.212z M48.108,70.206
	L56.813,83.7l-0.316,0.192l-8.732-13.484L48.108,70.206z M57.05,84.182l7.217,19.11l-0.342,0.205l-7.183-19.128L57.05,84.182z
	 M132.447,63.94l-7.215-19.139l0.335-0.187l7.225,19.118L132.447,63.94z M115.937,30.431l-7.783-6.609l0.316-0.185l7.793,6.597
	L115.937,30.431z M107.557,23.55L107.557,23.55L39.845,62.653h-0.001l-0.647,0.361l-0.334-0.276l68.803-39.762l0.366,0.296
	L107.557,23.55z M105.444,22.954L38.361,61.675l-7.521-2.307l67.082-38.722L105.444,22.954z M30.205,59.734l7.525,2.309
	l-0.179,0.104l-7.51-2.321L30.205,59.734z M38.364,62.407l-0.128-0.042l0.292-0.169l0,0l67.716-39.086l0,0c0.002,0,0.002,0,0.002,0
	l0.705-0.41l0.083,0.026L38.364,62.407z M106.078,22.587l-7.537-2.311l0.196-0.118l7.521,2.324L106.078,22.587z M88.975,24.117
	l5.737-2.235L30.058,59.203l-5.704,2.233L88.975,24.117z M18.025,94.786V75.828v-1.779l5.965-8.948l6.23-2.438l8.043,2.46
	l8.07,6.838l8.352,12.944l8.495,22.507c0.021,0.055,0.059,0.099,0.103,0.129c0.001,0.002,0.001,0.002,0.003,0.004l0.25,0.161v13.37
	L18.025,94.786z"/>
<path stroke="#000000" stroke-width="0.25" stroke-miterlimit="10" d="M67.825,89.369c-0.221,0.123-0.299,0.399-0.178,0.618
	c0.124,0.22,0.4,0.298,0.619,0.175l4.82-2.69l1.306,2.341c0.123,0.219,0.399,0.298,0.619,0.175c0.219-0.121,0.298-0.398,0.175-0.619
	l-1.306-2.339l3.713-2.073l0.693,1.243c0.123,0.219,0.4,0.298,0.619,0.176s0.297-0.399,0.175-0.618l-0.694-1.243l3.715-2.074
	l0.935,1.676c0.122,0.219,0.399,0.298,0.618,0.175c0.22-0.121,0.298-0.398,0.176-0.618l-0.936-1.675l3.716-2.074l0.388,0.696
	c0.122,0.218,0.399,0.297,0.617,0.175c0.221-0.122,0.299-0.399,0.177-0.618l-0.389-0.696l4.53-2.528l0.666,1.191
	c0.123,0.221,0.399,0.299,0.618,0.176c0.22-0.122,0.299-0.398,0.176-0.619l-0.665-1.191l2.881-1.608
	c0.22-0.122,0.298-0.399,0.176-0.619c-0.123-0.219-0.399-0.296-0.618-0.174l-2.882,1.608l-0.752-1.347
	c-0.121-0.219-0.399-0.298-0.618-0.176c-0.219,0.123-0.298,0.399-0.176,0.618l0.753,1.347l-4.532,2.53l-0.812-1.456
	c-0.123-0.22-0.399-0.3-0.619-0.176c-0.219,0.122-0.297,0.398-0.176,0.618l0.813,1.456l-3.716,2.074l-0.387-0.694
	c-0.123-0.22-0.399-0.298-0.619-0.176c-0.218,0.122-0.297,0.398-0.174,0.619l0.388,0.693l-3.715,2.073l-1.056-1.891
	c-0.123-0.22-0.398-0.298-0.618-0.177c-0.22,0.123-0.297,0.4-0.176,0.619l1.057,1.892l-3.714,2.072l-0.57-1.021
	c-0.122-0.218-0.399-0.297-0.618-0.175c-0.22,0.122-0.298,0.399-0.176,0.619l0.57,1.021L67.825,89.369z"/>
<path stroke="#000000" stroke-width="0.25" stroke-miterlimit="10" d="M125.767,82.727c0.042,0.086,0.007,0.19-0.079,0.232
	l-5.671,2.77c-0.085,0.042-0.189,0.006-0.231-0.08l0,0c-0.042-0.086-0.006-0.189,0.079-0.231l5.672-2.77
	C125.621,82.605,125.725,82.641,125.767,82.727L125.767,82.727z"/>
<path stroke="#000000" stroke-width="0.25" stroke-miterlimit="10" d="M125.242,84.901c0.037,0.076,0.005,0.168-0.07,0.205l0,0
	c-0.076,0.037-0.168,0.006-0.205-0.07l-1.36-2.786c-0.038-0.076-0.006-0.168,0.07-0.205l0,0c0.075-0.037,0.168-0.006,0.205,0.07
	L125.242,84.901z"/>
<path stroke="#000000" stroke-width="0.25" stroke-miterlimit="10" d="M123.624,84.767c0.037,0.075,0.007,0.167-0.069,0.204
	l-4.985,2.435c-0.074,0.037-0.166,0.005-0.203-0.07l0,0c-0.037-0.075-0.005-0.167,0.069-0.203l4.986-2.436
	C123.496,84.66,123.588,84.69,123.624,84.767L123.624,84.767z"/>
<path stroke="#000000" stroke-width="0.25" stroke-miterlimit="10" d="M123.163,86.678c0.033,0.067,0.005,0.148-0.062,0.181l0,0
	c-0.066,0.032-0.147,0.005-0.181-0.062l-1.195-2.449c-0.033-0.067-0.005-0.148,0.062-0.181l0,0c0.066-0.032,0.147-0.005,0.181,0.062
	L123.163,86.678z"/>
<path stroke="#000000" stroke-width="0.25" stroke-miterlimit="10" d="M115.872,88.554c-0.037-0.075-0.007-0.167,0.069-0.204
	l4.985-2.435c0.074-0.037,0.166-0.005,0.203,0.07l0,0c0.037,0.075,0.005,0.167-0.069,0.203l-4.986,2.436
	C116,88.66,115.908,88.63,115.872,88.554L115.872,88.554z"/>
<path stroke="#000000" stroke-width="0.25" stroke-miterlimit="10" d="M116.333,86.643c-0.033-0.067-0.005-0.148,0.062-0.181l0,0
	c0.066-0.032,0.147-0.005,0.181,0.062l1.195,2.449c0.033,0.067,0.005,0.148-0.062,0.181l0,0c-0.066,0.032-0.147,0.005-0.181-0.062
	L116.333,86.643z"/>
<path stroke="#000000" stroke-width="0.25" stroke-miterlimit="10" d="M120.002,87.774c0.037,0.076,0.005,0.168-0.07,0.205l0,0
	c-0.076,0.037-0.168,0.006-0.205-0.07l-1.36-2.786c-0.038-0.076-0.006-0.168,0.07-0.205l0,0c0.075-0.037,0.168-0.006,0.205,0.07
	L120.002,87.774z"/>
<path stroke="#000000" stroke-width="0.25" stroke-miterlimit="10" d="M118.703,88.595c0.037,0.076,0.005,0.168-0.07,0.205l0,0
	c-0.076,0.037-0.168,0.006-0.205-0.07l-1.36-2.786c-0.038-0.076-0.006-0.168,0.07-0.205l0,0c0.075-0.037,0.168-0.006,0.205,0.07
	L118.703,88.595z"/>
<path stroke="#000000" stroke-width="0.25" stroke-miterlimit="10" d="M117.354,87.904c0.042,0.086,0.007,0.19-0.079,0.232
	l-5.671,2.77c-0.085,0.042-0.189,0.006-0.231-0.08l0,0c-0.042-0.086-0.006-0.189,0.079-0.231l5.672-2.77
	C117.209,87.783,117.313,87.818,117.354,87.904L117.354,87.904z"/>
<path stroke="#000000" stroke-width="0.25" stroke-miterlimit="10" d="M115.212,89.944c0.037,0.075,0.007,0.167-0.069,0.204
	l-4.985,2.435c-0.074,0.037-0.166,0.005-0.203-0.07l0,0c-0.037-0.075-0.005-0.167,0.069-0.203l4.986-2.436
	C115.084,89.838,115.176,89.868,115.212,89.944L115.212,89.944z"/>
<path stroke="#000000" stroke-width="0.25" stroke-miterlimit="10" d="M114.751,91.855c0.033,0.067,0.005,0.148-0.062,0.181l0,0
	c-0.066,0.032-0.147,0.005-0.181-0.062l-1.195-2.449c-0.033-0.067-0.005-0.148,0.062-0.181l0,0c0.066-0.032,0.147-0.005,0.181,0.062
	L114.751,91.855z"/>
<path stroke="#000000" stroke-width="0.25" stroke-miterlimit="10" d="M107.46,93.731c-0.037-0.075-0.007-0.167,0.069-0.204
	l4.985-2.435c0.074-0.037,0.166-0.005,0.203,0.07l0,0c0.037,0.075,0.005,0.167-0.069,0.203l-4.986,2.436
	C107.588,93.838,107.496,93.808,107.46,93.731L107.46,93.731z"/>
<path stroke="#000000" stroke-width="0.25" stroke-miterlimit="10" d="M111.59,92.952c0.037,0.076,0.005,0.168-0.07,0.205l0,0
	c-0.076,0.037-0.168,0.006-0.205-0.07l-1.36-2.786c-0.038-0.076-0.006-0.168,0.07-0.205l0,0c0.075-0.037,0.168-0.006,0.205,0.07
	L111.59,92.952z"/>
<path stroke="#000000" stroke-width="0.25" stroke-miterlimit="10" d="M110.291,93.772c0.037,0.076,0.005,0.168-0.07,0.205l0,0
	c-0.076,0.037-0.168,0.006-0.205-0.07l-1.36-2.786c-0.038-0.076-0.006-0.168,0.07-0.205l0,0c0.075-0.037,0.168-0.006,0.205,0.07
	L110.291,93.772z"/>
<path stroke="#000000" stroke-width="0.25" stroke-miterlimit="10" d="M109.714,92.695c0.042,0.086,0.007,0.19-0.079,0.232
	l-5.671,2.77c-0.085,0.042-0.189,0.006-0.231-0.08l0,0c-0.042-0.086-0.006-0.189,0.079-0.231l5.672-2.77
	C109.568,92.574,109.672,92.609,109.714,92.695L109.714,92.695z"/>
<path stroke="#000000" stroke-width="0.25" stroke-miterlimit="10" d="M107.571,94.735c0.037,0.075,0.007,0.167-0.069,0.204
	l-4.985,2.435c-0.074,0.037-0.166,0.005-0.203-0.07l0,0c-0.037-0.075-0.005-0.167,0.069-0.203l4.986-2.436
	C107.443,94.629,107.535,94.659,107.571,94.735L107.571,94.735z"/>
<path stroke="#000000" stroke-width="0.25" stroke-miterlimit="10" d="M107.11,96.646c0.033,0.067,0.005,0.148-0.062,0.181l0,0
	c-0.066,0.032-0.147,0.005-0.181-0.062l-1.195-2.449c-0.033-0.067-0.005-0.148,0.062-0.181l0,0c0.066-0.032,0.147-0.005,0.181,0.062
	L107.11,96.646z"/>
<path stroke="#000000" stroke-width="0.25" stroke-miterlimit="10" d="M99.819,98.522c-0.037-0.075-0.007-0.167,0.069-0.204
	l4.985-2.435c0.074-0.037,0.166-0.005,0.203,0.07l0,0c0.037,0.075,0.005,0.167-0.069,0.203l-4.986,2.436
	C99.947,98.629,99.855,98.599,99.819,98.522L99.819,98.522z"/>
<path stroke="#000000" stroke-width="0.25" stroke-miterlimit="10" d="M103.949,97.743c0.037,0.076,0.005,0.168-0.07,0.205l0,0
	c-0.076,0.037-0.168,0.006-0.205-0.07l-1.36-2.786c-0.038-0.076-0.006-0.168,0.07-0.205l0,0c0.075-0.037,0.168-0.006,0.205,0.07
	L103.949,97.743z"/>
<path stroke="#000000" stroke-width="0.25" stroke-miterlimit="10" d="M102.65,98.563c0.037,0.076,0.005,0.168-0.07,0.205l0,0
	c-0.076,0.037-0.168,0.006-0.205-0.07l-1.36-2.786c-0.038-0.076-0.006-0.168,0.07-0.205l0,0c0.075-0.037,0.168-0.006,0.205,0.07
	L102.65,98.563z"/>
<path stroke="#000000" stroke-width="0.25" stroke-miterlimit="10" d="M126.778,82.449c-0.09-0.007-0.157-0.084-0.151-0.174
	l0.438-5.885c0.007-0.088,0.086-0.155,0.174-0.148l0,0c0.09,0.006,0.156,0.084,0.15,0.173l-0.438,5.885
	C126.945,82.389,126.866,82.456,126.778,82.449L126.778,82.449z"/>
<path stroke="#000000" stroke-width="0.25" stroke-miterlimit="10" d="M126.141,79.757c-0.077-0.005-0.138-0.073-0.132-0.151
	l0.384-5.173c0.006-0.078,0.075-0.136,0.153-0.131l0,0c0.078,0.005,0.138,0.075,0.132,0.152l-0.385,5.175
	C126.288,79.704,126.22,79.764,126.141,79.757L126.141,79.757z"/>
<path stroke="#000000" stroke-width="0.25" stroke-miterlimit="10" d="M124.815,78.484c-0.071-0.005-0.122-0.066-0.116-0.135l0,0
	c0.003-0.069,0.064-0.122,0.134-0.116l2.541,0.188c0.07,0.006,0.122,0.066,0.116,0.135l0,0c-0.004,0.069-0.064,0.122-0.134,0.117
	L124.815,78.484z"/>
<path stroke="#000000" stroke-width="0.25" stroke-miterlimit="10" d="M126.738,71.712c0.078,0.006,0.138,0.073,0.132,0.152
	l-0.386,5.173c-0.003,0.077-0.073,0.136-0.151,0.131l0,0c-0.078-0.006-0.138-0.075-0.131-0.152l0.384-5.174
	C126.592,71.766,126.659,71.706,126.738,71.712L126.738,71.712z"/>
<path stroke="#000000" stroke-width="0.25" stroke-miterlimit="10" d="M125.421,75.415c-0.08-0.007-0.139-0.075-0.134-0.153l0,0
	c0.005-0.08,0.074-0.139,0.155-0.133l2.89,0.215c0.08,0.006,0.139,0.075,0.132,0.153l0,0c-0.005,0.078-0.074,0.138-0.152,0.133
	L125.421,75.415z"/>
<path stroke="#000000" stroke-width="0.25" stroke-miterlimit="10" d="M125.37,73.979c-0.079-0.006-0.138-0.075-0.132-0.153l0,0
	c0.005-0.079,0.073-0.139,0.152-0.133l2.892,0.216c0.079,0.005,0.138,0.074,0.132,0.153l0,0c-0.006,0.078-0.073,0.138-0.152,0.132
	L125.37,73.979z"/>
</svg>
